<svg width="17" height="17" viewBox="0 0 17 17" fill="none" xmlns="http://www.w3.org/2000/svg">
<rect x="0.958862" y="0.280029" width="16.0256" height="16.0256" rx="2.67093" fill="#E8F5E9"/>
<g clip-path="url(#clip0_212_1586)">
<path fill-rule="evenodd" clip-rule="evenodd" d="M4.41545 0.344971C6.25933 0.344971 7.75411 1.83974 7.75411 3.68364V0.344971H11.0928C12.9367 0.344971 14.4314 1.83974 14.4314 3.68364C14.4314 5.52751 12.9367 7.0223 11.0928 7.0223C12.9367 7.0223 14.4314 8.51709 14.4314 10.361C14.4314 11.2765 14.0629 12.106 13.4661 12.7092L13.4536 12.7218L13.4425 12.7328C12.8392 13.3305 12.0091 13.6996 11.0928 13.6996C10.1827 13.6996 9.35764 13.3355 8.75538 12.7449C8.74757 12.7373 8.73975 12.7295 8.73197 12.7218C8.72466 12.7145 8.71738 12.7071 8.71014 12.6997C8.11883 12.0974 7.75411 11.2718 7.75411 10.361C7.75411 12.2048 6.25933 13.6996 4.41545 13.6996C2.57155 13.6996 1.07678 12.2048 1.07678 10.361V7.0223H4.41545C2.57155 7.0223 1.07678 5.52751 1.07678 3.68364C1.07678 1.83974 2.57155 0.344971 4.41545 0.344971ZM7.08638 3.68364C7.08638 5.15876 5.89057 6.35457 4.41545 6.35457V1.0127C5.89057 1.0127 7.08638 2.20852 7.08638 3.68364ZM13.7637 10.361C13.7637 8.88584 12.5679 7.69003 11.0928 7.69003C9.61766 7.69003 8.42185 8.88584 8.42185 10.361H13.7637ZM1.74452 7.69003V10.361C1.74452 11.8361 2.94033 13.0319 4.41545 13.0319C5.89057 13.0319 7.08638 11.8361 7.08638 10.361V7.69003H1.74452ZM8.42185 6.35457V1.0127H11.0928C12.5679 1.0127 13.7637 2.20852 13.7637 3.68364C13.7637 5.15876 12.5679 6.35457 11.0928 6.35457H8.42185Z" fill="#5417D7"/>
</g>
<defs>
<clipPath id="clip0_212_1586">
<rect width="13.3547" height="13.3547" fill="white" transform="translate(1.07678 0.344971)"/>
</clipPath>
</defs>
</svg>
