<svg width="17" height="17" viewBox="0 0 17 17" fill="none" xmlns="http://www.w3.org/2000/svg">
<path d="M3.81055 2.97015H13.3252C13.8786 2.97015 14.4095 3.19016 14.8008 3.58148C15.1921 3.9728 15.4121 4.50367 15.4121 5.05707V11.5668C15.4121 12.1202 15.1921 12.6511 14.8008 13.0424C14.4095 13.4337 13.8786 13.6537 13.3252 13.6537H3.81055C3.25713 13.6537 2.72629 13.4337 2.33496 13.0424C1.94364 12.6511 1.72363 12.1202 1.72363 11.5668V5.05707C1.72363 4.50365 1.94364 3.97281 2.33496 3.58148C2.72629 3.19016 3.25713 2.97015 3.81055 2.97015ZM2.3916 11.5668C2.3916 11.9432 2.54054 12.3046 2.80664 12.5707C3.07274 12.8368 3.43422 12.9858 3.81055 12.9858H13.3252C13.7015 12.9858 14.063 12.8368 14.3291 12.5707C14.5952 12.3046 14.7441 11.9431 14.7441 11.5668V6.64301H2.3916V11.5668ZM11.0723 9.9809H12.5742C12.6628 9.9809 12.7479 10.0169 12.8105 10.0795C12.8729 10.142 12.9081 10.2266 12.9082 10.3149C12.9082 10.4034 12.8731 10.4886 12.8105 10.5512C12.7479 10.6138 12.6628 10.6489 12.5742 10.6489H11.0723C10.9838 10.6489 10.8985 10.6138 10.8359 10.5512C10.7733 10.4886 10.7383 10.4034 10.7383 10.3149C10.7384 10.2265 10.7735 10.1421 10.8359 10.0795C10.8985 10.0169 10.9837 9.9809 11.0723 9.9809ZM3.81055 3.63812C3.43422 3.63812 3.07274 3.78706 2.80664 4.05316C2.54054 4.31926 2.3916 4.68074 2.3916 5.05707V5.97504H14.7441V5.05707C14.7441 4.68076 14.5952 4.31926 14.3291 4.05316C14.063 3.78706 13.7015 3.63812 13.3252 3.63812H3.81055Z" fill="#4CAF4F" stroke="#4CAF4F" stroke-width="0.333867"/>
</svg>
