<svg width="17" height="17" viewBox="0 0 17 17" fill="none" xmlns="http://www.w3.org/2000/svg">
<mask id="path-1-inside-1_212_1413" fill="white">
<path d="M10.0074 8.83866C9.92698 8.83866 9.85233 8.81655 9.78603 8.781V8.78195C9.78603 8.90843 9.73686 9.02721 9.64767 9.11617C9.55847 9.20537 9.43978 9.25453 9.31344 9.25453C9.23187 9.25453 9.15628 9.23188 9.08926 9.19538C9.0825 9.31109 9.03625 9.41924 8.95373 9.50184C8.86453 9.59104 8.74584 9.6402 8.61943 9.6402C8.36826 9.6402 8.1643 9.44277 8.1496 9.1953C8.07188 9.2373 7.98402 9.25933 7.8934 9.25351C7.64633 9.2373 7.45284 9.02383 7.45284 8.76739V6.64178L7.2108 7.06111C7.11861 7.22149 6.94604 7.32107 6.76024 7.32107C6.66971 7.32107 6.58027 7.29731 6.50106 7.25193C6.40243 7.19474 6.33187 7.10295 6.30253 6.99313C6.27303 6.88325 6.28829 6.76833 6.34532 6.66984C6.3454 6.66984 7.13725 5.29858 7.18556 5.21435C7.1913 5.20169 7.20766 5.16496 7.22158 5.13365C7.23488 5.10376 7.24628 5.07308 7.25721 5.04225C7.49601 4.36808 8.0873 3.9493 8.80042 3.9493C9.72645 3.9493 10.4798 4.76624 10.4798 5.77041L10.4799 8.366C10.4799 8.49233 10.4308 8.61102 10.3417 8.70031C10.2525 8.78951 10.1338 8.83867 10.0074 8.83867L10.0074 8.83866ZM8.80042 4.20041C8.18767 4.20041 7.69928 4.54652 7.49391 5.12623C7.48077 5.16304 7.46709 5.19985 7.45112 5.23572C7.40479 5.33963 7.40479 5.33963 7.39173 5.35457L7.39 5.35308C7.32534 5.47508 7.13326 5.80772 6.56275 6.79552C6.53931 6.83603 6.5331 6.88307 6.54505 6.92806C6.55717 6.97305 6.58619 7.01096 6.62639 7.03417C6.75114 7.10582 6.92199 7.05957 6.99309 6.93569L7.46968 6.11055C7.49816 6.06139 7.55574 6.03724 7.61095 6.05219C7.66586 6.0669 7.70401 6.11669 7.70401 6.17348V8.76747C7.70401 8.88986 7.79635 8.99549 7.90986 9.00296C7.97531 9.00642 8.03634 8.98448 8.0822 8.9387C8.12389 8.89701 8.14686 8.84148 8.14686 8.78209V7.08559C8.14686 7.01621 8.2031 6.95997 8.27248 6.95997C8.34185 6.95997 8.39809 7.01613 8.39809 7.08559L8.39801 9.1677C8.39801 9.28978 8.49736 9.38913 8.61944 9.38913C8.67874 9.38913 8.73443 9.36616 8.7762 9.32447C8.81789 9.2827 8.84086 9.22701 8.84086 9.1677V7.08559C8.84086 7.01621 8.89702 6.95997 8.96648 6.95997C9.03585 6.95997 9.09209 7.01613 9.09209 7.08559L9.09202 8.76258V8.78208C9.09202 8.90408 9.19136 9.00342 9.31352 9.00342C9.37275 9.00342 9.42828 8.98038 9.47028 8.93853C9.51197 8.89692 9.53494 8.84139 9.53494 8.782V7.0855C9.53494 7.01612 9.5911 6.95988 9.66056 6.95988C9.72993 6.95988 9.78618 7.01604 9.78618 7.0855L9.78602 8.36606C9.78602 8.48822 9.88536 8.58756 10.0074 8.58756C10.0667 8.58756 10.1223 8.56452 10.164 8.52291C10.2058 8.48106 10.2287 8.42537 10.2287 8.36606L10.2288 5.77046C10.2288 4.90484 9.58804 4.20044 8.80042 4.20044L8.80042 4.20041Z"/>
</mask>
<path d="M10.0074 8.83866C9.92698 8.83866 9.85233 8.81655 9.78603 8.781V8.78195C9.78603 8.90843 9.73686 9.02721 9.64767 9.11617C9.55847 9.20537 9.43978 9.25453 9.31344 9.25453C9.23187 9.25453 9.15628 9.23188 9.08926 9.19538C9.0825 9.31109 9.03625 9.41924 8.95373 9.50184C8.86453 9.59104 8.74584 9.6402 8.61943 9.6402C8.36826 9.6402 8.1643 9.44277 8.1496 9.1953C8.07188 9.2373 7.98402 9.25933 7.8934 9.25351C7.64633 9.2373 7.45284 9.02383 7.45284 8.76739V6.64178L7.2108 7.06111C7.11861 7.22149 6.94604 7.32107 6.76024 7.32107C6.66971 7.32107 6.58027 7.29731 6.50106 7.25193C6.40243 7.19474 6.33187 7.10295 6.30253 6.99313C6.27303 6.88325 6.28829 6.76833 6.34532 6.66984C6.3454 6.66984 7.13725 5.29858 7.18556 5.21435C7.1913 5.20169 7.20766 5.16496 7.22158 5.13365C7.23488 5.10376 7.24628 5.07308 7.25721 5.04225C7.49601 4.36808 8.0873 3.9493 8.80042 3.9493C9.72645 3.9493 10.4798 4.76624 10.4798 5.77041L10.4799 8.366C10.4799 8.49233 10.4308 8.61102 10.3417 8.70031C10.2525 8.78951 10.1338 8.83867 10.0074 8.83867L10.0074 8.83866ZM8.80042 4.20041C8.18767 4.20041 7.69928 4.54652 7.49391 5.12623C7.48077 5.16304 7.46709 5.19985 7.45112 5.23572C7.40479 5.33963 7.40479 5.33963 7.39173 5.35457L7.39 5.35308C7.32534 5.47508 7.13326 5.80772 6.56275 6.79552C6.53931 6.83603 6.5331 6.88307 6.54505 6.92806C6.55717 6.97305 6.58619 7.01096 6.62639 7.03417C6.75114 7.10582 6.92199 7.05957 6.99309 6.93569L7.46968 6.11055C7.49816 6.06139 7.55574 6.03724 7.61095 6.05219C7.66586 6.0669 7.70401 6.11669 7.70401 6.17348V8.76747C7.70401 8.88986 7.79635 8.99549 7.90986 9.00296C7.97531 9.00642 8.03634 8.98448 8.0822 8.9387C8.12389 8.89701 8.14686 8.84148 8.14686 8.78209V7.08559C8.14686 7.01621 8.2031 6.95997 8.27248 6.95997C8.34185 6.95997 8.39809 7.01613 8.39809 7.08559L8.39801 9.1677C8.39801 9.28978 8.49736 9.38913 8.61944 9.38913C8.67874 9.38913 8.73443 9.36616 8.7762 9.32447C8.81789 9.2827 8.84086 9.22701 8.84086 9.1677V7.08559C8.84086 7.01621 8.89702 6.95997 8.96648 6.95997C9.03585 6.95997 9.09209 7.01613 9.09209 7.08559L9.09202 8.76258V8.78208C9.09202 8.90408 9.19136 9.00342 9.31352 9.00342C9.37275 9.00342 9.42828 8.98038 9.47028 8.93853C9.51197 8.89692 9.53494 8.84139 9.53494 8.782V7.0855C9.53494 7.01612 9.5911 6.95988 9.66056 6.95988C9.72993 6.95988 9.78618 7.01604 9.78618 7.0855L9.78602 8.36606C9.78602 8.48822 9.88536 8.58756 10.0074 8.58756C10.0667 8.58756 10.1223 8.56452 10.164 8.52291C10.2058 8.48106 10.2287 8.42537 10.2287 8.36606L10.2288 5.77046C10.2288 4.90484 9.58804 4.20044 8.80042 4.20044L8.80042 4.20041Z" fill="#4CAF4F"/>
<path d="M10.0074 8.83866V8.3935H11.5801L10.2407 9.21778L10.0074 8.83866ZM9.78603 8.781H9.34087V8.0372L9.99639 8.38869L9.78603 8.781ZM9.64767 9.11617L9.33289 8.8014L9.33331 8.80098L9.64767 9.11617ZM9.08926 9.19538L8.64486 9.1694L8.68582 8.4688L9.30216 8.80444L9.08926 9.19538ZM8.95373 9.50184L9.26867 9.81645L9.2685 9.81661L8.95373 9.50184ZM8.1496 9.1953L7.93794 8.80368L8.55255 8.47151L8.59397 9.16891L8.1496 9.1953ZM7.8934 9.25351L7.86487 9.69775L7.86427 9.69771L7.8934 9.25351ZM7.45284 6.64178L7.0673 6.41924L7.89799 4.98011V6.64178H7.45284ZM7.2108 7.06111L6.82485 6.83927L6.82526 6.83857L7.2108 7.06111ZM6.50106 7.25193L6.27974 7.63817L6.2778 7.63704L6.50106 7.25193ZM6.30253 6.99313L6.73247 6.87773L6.7326 6.87823L6.30253 6.99313ZM6.34532 6.66984L5.96008 6.44678L6.08868 6.22469H6.34532V6.66984ZM7.18556 5.21435L7.59098 5.39818L7.58224 5.41746L7.57171 5.43582L7.18556 5.21435ZM7.22158 5.13365L6.81484 4.95276L6.81484 4.95276L7.22158 5.13365ZM7.25721 5.04225L7.67682 5.19088L7.67678 5.191L7.25721 5.04225ZM10.4798 5.77041L10.0347 5.77042V5.77041H10.4798ZM10.4799 8.366L10.9251 8.36599V8.366H10.4799ZM10.3417 8.70031L10.6568 9.01479L10.6565 9.01508L10.3417 8.70031ZM10.0074 8.83867V9.28382H8.4346L9.77405 8.45955L10.0074 8.83867ZM8.80042 4.20041V3.75526H9.39058L9.22845 4.32271L8.80042 4.20041ZM7.49391 5.12623L7.91351 5.27488L7.91317 5.27584L7.49391 5.12623ZM7.45112 5.23572L7.85779 5.41677L7.85769 5.417L7.45112 5.23572ZM7.39173 5.35457L7.72695 5.64747L7.43574 5.98077L7.10077 5.69148L7.39173 5.35457ZM7.39 5.35308L6.99667 5.14462L7.25823 4.65109L7.68096 5.01618L7.39 5.35308ZM6.56275 6.79552L6.94823 7.01816L6.94805 7.01848L6.56275 6.79552ZM6.54505 6.92806L6.1152 7.04378L6.11483 7.04239L6.54505 6.92806ZM6.62639 7.03417L6.40466 7.42018L6.40383 7.41969L6.62639 7.03417ZM6.99309 6.93569L6.607 6.7141L6.60762 6.71304L6.99309 6.93569ZM7.46968 6.11055L7.08421 5.88791L7.08448 5.88744L7.46968 6.11055ZM7.61095 6.05219L7.49576 6.48218L7.49465 6.48188L7.61095 6.05219ZM7.90986 9.00296L7.88635 9.44753L7.88063 9.44716L7.90986 9.00296ZM8.0822 8.9387L8.39697 9.25347L8.3967 9.25375L8.0822 8.9387ZM8.39809 7.08559H8.84325V7.08561L8.39809 7.08559ZM8.39801 9.1677H7.95286V9.16769L8.39801 9.1677ZM8.7762 9.32447L9.09127 9.63895L9.09067 9.63955L8.7762 9.32447ZM9.09209 7.08559H9.53725V7.08561L9.09209 7.08559ZM9.09202 8.76258H8.64686V8.76256L9.09202 8.76258ZM9.47028 8.93853L9.78476 9.2536L9.78447 9.25389L9.47028 8.93853ZM9.78618 7.0855H10.2313V7.08555L9.78618 7.0855ZM9.78602 8.36606H9.34086L9.34086 8.36601L9.78602 8.36606ZM10.164 8.52291L10.4787 8.83768L10.4784 8.83798L10.164 8.52291ZM10.2287 8.36606H9.78355V8.36605L10.2287 8.36606ZM10.2288 5.77046H10.6739V5.77048L10.2288 5.77046ZM8.80042 4.20044V4.6456H8.21026L8.37239 4.07815L8.80042 4.20044ZM10.0074 9.28381C9.84345 9.28381 9.69711 9.23844 9.57567 9.17332L9.99639 8.38869C10.0021 8.39177 10.0058 8.39295 10.0072 8.39334C10.0085 8.39368 10.0083 8.3935 10.0074 8.3935V9.28381ZM10.2312 8.781V8.78195H9.34087V8.781H10.2312ZM10.2312 8.78195C10.2312 9.02612 10.1354 9.25848 9.96202 9.43136L9.33331 8.80098C9.33649 8.79781 9.33807 8.79509 9.33899 8.79287C9.33991 8.79064 9.34087 8.78721 9.34087 8.78195H10.2312ZM9.96244 9.43094C9.78969 9.6037 9.55774 9.69969 9.31344 9.69969V8.80938C9.31855 8.80938 9.32191 8.80845 9.32419 8.8075C9.32647 8.80656 9.32942 8.80488 9.33289 8.8014L9.96244 9.43094ZM9.31344 9.69969C9.14739 9.69969 8.99922 9.65323 8.87636 9.58632L9.30216 8.80444C9.30795 8.80759 9.31163 8.80879 9.31309 8.80919C9.31433 8.80953 9.31423 8.80938 9.31344 8.80938V9.69969ZM9.53366 9.22136C9.52085 9.44047 9.43196 9.65298 9.26867 9.81645L8.63879 9.18723C8.64045 9.18558 8.6414 9.18412 8.64221 9.18228C8.64309 9.18027 8.64447 9.17619 8.64486 9.1694L9.53366 9.22136ZM9.2685 9.81661C9.09572 9.98939 8.86376 10.0854 8.61943 10.0854V9.19504C8.62461 9.19504 8.628 9.1941 8.63027 9.19316C8.63255 9.19222 8.63548 9.19054 8.63896 9.18707L9.2685 9.81661ZM8.61943 10.0854C8.12797 10.0854 7.73362 9.69964 7.70523 9.2217L8.59397 9.16891C8.59442 9.17648 8.59752 9.18312 8.603 9.18834C8.60567 9.19089 8.60839 9.19253 8.61074 9.1935C8.61281 9.19435 8.61545 9.19504 8.61943 9.19504V10.0854ZM8.36126 9.58692C8.21747 9.66463 8.04698 9.70945 7.86487 9.69775L7.92194 8.80927C7.92195 8.80927 7.9229 8.80936 7.92525 8.80882C7.92776 8.80823 7.93211 8.80684 7.93794 8.80368L8.36126 9.58692ZM7.86427 9.69771C7.37 9.66529 7.00768 9.24496 7.00768 8.76739H7.89799C7.89799 8.78244 7.90346 8.79403 7.91031 8.80159C7.91698 8.80896 7.92152 8.80924 7.92253 8.80931L7.86427 9.69771ZM7.00768 8.76739V6.64178H7.89799V8.76739H7.00768ZM7.83837 6.86432L7.59633 7.28364L6.82526 6.83857L7.0673 6.41924L7.83837 6.86432ZM7.59674 7.28294C7.42473 7.5822 7.10455 7.76622 6.76024 7.76622V6.87591C6.78754 6.87591 6.81249 6.86078 6.82485 6.83927L7.59674 7.28294ZM6.76024 7.76622C6.5919 7.76622 6.42619 7.72208 6.27975 7.63817L6.72238 6.86569C6.73435 6.87255 6.74751 6.87591 6.76024 6.87591V7.76622ZM6.2778 7.63704C6.07794 7.52118 5.93246 7.33262 5.87246 7.10804L6.7326 6.87823C6.73219 6.87671 6.73108 6.87402 6.72894 6.87123C6.72681 6.86845 6.72484 6.86711 6.72433 6.86681L6.2778 7.63704ZM5.87259 7.10854C5.81236 6.88413 5.84389 6.64744 5.96008 6.44678L6.73056 6.8929C6.73119 6.89181 6.7323 6.88927 6.73278 6.88567C6.73326 6.88206 6.73286 6.87918 6.73247 6.87773L5.87259 7.10854ZM6.34532 6.22469C6.12696 6.28192 5.96351 6.44097 5.96229 6.44302C5.96188 6.4437 5.96128 6.44474 5.96108 6.44506C5.96097 6.44525 5.96078 6.44558 5.96072 6.44569C5.96068 6.44576 5.9606 6.4459 5.96058 6.44593C5.96051 6.44604 5.96053 6.44601 5.9607 6.44572C5.961 6.44519 5.96151 6.44432 5.96225 6.44304C5.96371 6.44051 5.96591 6.43671 5.96881 6.43169C5.97461 6.42166 5.98313 6.40692 5.994 6.38809C6.01574 6.35045 6.04686 6.29657 6.08436 6.23164C6.15935 6.10178 6.25984 5.92776 6.36184 5.7511C6.56618 5.39719 6.77567 5.03426 6.7994 4.99289L7.57171 5.43582C7.54713 5.47867 7.33655 5.84349 7.13286 6.19627C7.03085 6.37295 6.93035 6.547 6.85534 6.67689C6.81783 6.74183 6.7867 6.79574 6.76493 6.83342C6.75405 6.85225 6.7455 6.86705 6.73967 6.87715C6.73675 6.88219 6.73449 6.8861 6.73295 6.88877C6.73219 6.89009 6.73156 6.89118 6.73109 6.89198C6.73088 6.89235 6.73061 6.89281 6.73036 6.89325C6.73026 6.89341 6.72998 6.8939 6.72963 6.89449C6.72941 6.89486 6.72879 6.89592 6.72837 6.89663C6.72714 6.8987 6.56369 7.05776 6.34532 7.115V6.22469ZM6.78013 5.03053C6.78503 5.01972 6.80056 4.98487 6.81484 4.95276L7.62833 5.31454C7.61477 5.34504 7.59757 5.38366 7.59098 5.39818L6.78013 5.03053ZM6.81484 4.95276C6.82103 4.93885 6.82787 4.92107 6.83765 4.8935L7.67678 5.191C7.66469 5.2251 7.64873 5.26867 7.62833 5.31454L6.81484 4.95276ZM6.8376 4.89362C7.1391 4.04243 7.89799 3.50414 8.80042 3.50414V4.39445C8.27662 4.39445 7.85292 4.69372 7.67682 5.19088L6.8376 4.89362ZM8.80042 3.50414C10.0056 3.50414 10.925 4.55502 10.925 5.77041H10.0347C10.0347 4.97746 9.44734 4.39445 8.80042 4.39445V3.50414ZM10.925 5.77039L10.9251 8.36599L10.0348 8.36602L10.0347 5.77042L10.925 5.77039ZM10.9251 8.366C10.9251 8.61011 10.8293 8.84195 10.6568 9.01479L10.0267 8.38583C10.0302 8.3823 10.0319 8.3793 10.0329 8.37697C10.0338 8.37463 10.0348 8.37119 10.0348 8.366H10.9251ZM10.6565 9.01508C10.4837 9.18788 10.2517 9.28382 10.0074 9.28382V8.39351C10.0126 8.39351 10.016 8.39256 10.0183 8.39162C10.0205 8.39068 10.0235 8.38901 10.0269 8.38554L10.6565 9.01508ZM9.77405 8.45955L9.77406 8.45954L10.2407 9.21778L10.2407 9.21779L9.77405 8.45955ZM8.80042 4.64557C8.37718 4.64557 8.05624 4.87198 7.91351 5.27488L7.0743 4.97758C7.34231 4.22106 7.99816 3.75526 8.80042 3.75526V4.64557ZM7.91317 5.27584C7.89912 5.31522 7.88086 5.36495 7.85779 5.41677L7.04444 5.05468C7.05331 5.03476 7.06243 5.01087 7.07465 4.97662L7.91317 5.27584ZM7.85769 5.417C7.8373 5.46272 7.82022 5.50134 7.80716 5.52749C7.79904 5.54372 7.78591 5.56874 7.76687 5.59645C7.74757 5.62452 7.7285 5.6457 7.72695 5.64747L7.05651 5.06168C7.05755 5.06048 7.05721 5.06087 7.05668 5.06148C7.056 5.06227 7.05427 5.06429 7.052 5.06706C7.04693 5.07324 7.0403 5.08176 7.03314 5.09218C7.01921 5.11244 7.01142 5.12816 7.01074 5.12953C7.01023 5.13054 7.01055 5.12995 7.01206 5.12671C7.01352 5.12357 7.0156 5.11905 7.01858 5.11247C7.02466 5.09904 7.03274 5.08091 7.04454 5.05444L7.85769 5.417ZM7.10077 5.69148L7.09904 5.68998L7.68096 5.01618L7.68269 5.01767L7.10077 5.69148ZM7.78333 5.56154C7.71366 5.693 7.51476 6.03725 6.94823 7.01816L6.17727 6.57288C6.75176 5.57819 6.93703 5.25716 6.99667 5.14462L7.78333 5.56154ZM6.94805 7.01848C6.98367 6.95692 6.99359 6.88265 6.97527 6.81372L6.11483 7.04239C6.0726 6.88348 6.09495 6.71513 6.17746 6.57256L6.94805 7.01848ZM6.9749 6.81233C6.95658 6.74429 6.91156 6.68479 6.84894 6.64864L6.40383 7.41969C6.26082 7.33714 6.15775 7.20181 6.1152 7.04378L6.9749 6.81233ZM6.84811 6.64816C6.79744 6.61905 6.74816 6.61925 6.71413 6.62841C6.68023 6.63753 6.63676 6.66226 6.60701 6.7141L7.37918 7.15727C7.18517 7.49531 6.74179 7.61382 6.40466 7.42017L6.84811 6.64816ZM6.60762 6.71304L7.08421 5.88791L7.85516 6.3332L7.37857 7.15833L6.60762 6.71304ZM7.08448 5.88744C7.21306 5.66545 7.4755 5.55436 7.72725 5.62249L7.49465 6.48188C7.63597 6.52013 7.78326 6.45733 7.85489 6.33367L7.08448 5.88744ZM7.72615 5.6222C7.97589 5.6891 8.14916 5.91542 8.14916 6.17348H7.25885C7.25885 6.31796 7.35583 6.44469 7.49576 6.48218L7.72615 5.6222ZM8.14916 6.17348V8.76747H7.25885V6.17348H8.14916ZM8.14916 8.76747C8.14916 8.71674 8.13037 8.67062 8.09952 8.63533C8.06872 8.6001 8.01437 8.56372 7.9391 8.55877L7.88063 9.44716C7.50589 9.42249 7.25885 9.09606 7.25885 8.76747H8.14916ZM7.93337 8.55843C7.88078 8.55565 7.81653 8.57491 7.7677 8.62365L8.3967 9.25375C8.25616 9.39404 8.06983 9.4572 7.88635 9.4475L7.93337 8.55843ZM7.76743 8.62393C7.72518 8.66617 7.7017 8.72405 7.7017 8.78209H8.59201C8.59201 8.9589 8.5226 9.12785 8.39697 9.25347L7.76743 8.62393ZM7.7017 8.78209V7.08559H8.59201V8.78209H7.7017ZM7.7017 7.08559C7.7017 6.77036 7.95725 6.51482 8.27248 6.51482V7.40513C8.44895 7.40513 8.59201 7.26207 8.59201 7.08559H7.7017ZM8.27248 6.51482C8.58753 6.51482 8.84325 6.7701 8.84325 7.08559H7.95294C7.95294 7.26217 8.09618 7.40513 8.27248 7.40513V6.51482ZM8.84325 7.08561L8.84317 9.16772L7.95286 9.16769L7.95294 7.08557L8.84325 7.08561ZM8.84317 9.1677C8.84317 9.04393 8.74321 8.94397 8.61944 8.94397V9.83428C8.25151 9.83428 7.95286 9.53564 7.95286 9.1677H8.84317ZM8.61944 8.94397C8.5615 8.94397 8.50389 8.96731 8.46173 9.00939L9.09067 9.63955C8.96497 9.765 8.79599 9.83428 8.61944 9.83428V8.94397ZM8.46113 9.00999C8.41905 9.05216 8.3957 9.10977 8.3957 9.1677H9.28602C9.28602 9.34426 9.21674 9.51324 9.09127 9.63895L8.46113 9.00999ZM8.3957 9.1677V7.08559H9.28602V9.1677H8.3957ZM8.3957 7.08559C8.3957 6.77054 8.65098 6.51481 8.96648 6.51481V7.40513C9.14306 7.40513 9.28602 7.26188 9.28602 7.08559H8.3957ZM8.96648 6.51481C9.28152 6.51481 9.53725 6.7701 9.53725 7.08559H8.64694C8.64694 7.26217 8.79018 7.40513 8.96648 7.40513V6.51481ZM9.53725 7.08561L9.53717 8.7626L8.64686 8.76256L8.64694 7.08557L9.53725 7.08561ZM9.53717 8.76258V8.78208H8.64686V8.76258H9.53717ZM9.53717 8.78208C9.53717 8.65801 9.437 8.55827 9.31352 8.55827V9.44858C8.94573 9.44858 8.64686 9.15015 8.64686 8.78208H9.53717ZM9.31352 8.55827C9.25437 8.55827 9.1971 8.58232 9.1561 8.62317L9.78447 9.25389C9.65946 9.37843 9.49113 9.44858 9.31352 9.44858V8.55827ZM9.15581 8.62346C9.11323 8.66596 9.08979 8.72404 9.08979 8.782H9.9801C9.9801 8.95874 9.91072 9.12788 9.78476 9.2536L9.15581 8.62346ZM9.08979 8.782V7.0855H9.9801V8.782H9.08979ZM9.08979 7.0855C9.08979 6.77045 9.34507 6.51473 9.66056 6.51473V7.40504C9.83713 7.40504 9.9801 7.2618 9.9801 7.0855H9.08979ZM9.66056 6.51473C9.97561 6.51473 10.2313 6.77001 10.2313 7.0855H9.34102C9.34102 7.26208 9.48426 7.40504 9.66056 7.40504V6.51473ZM10.2313 7.08555L10.2312 8.36612L9.34086 8.36601L9.34102 7.08544L10.2313 7.08555ZM10.2312 8.36606C10.2312 8.24258 10.1314 8.14241 10.0074 8.14241V9.03272C9.6393 9.03272 9.34086 8.73386 9.34086 8.36606H10.2312ZM10.0074 8.14241C9.94896 8.14241 9.89136 8.16605 9.84949 8.20784L10.4784 8.83798C10.3532 8.96298 10.1845 9.03272 10.0074 9.03272V8.14241ZM9.84919 8.20813C9.80681 8.25052 9.78355 8.30837 9.78355 8.36606H10.6739C10.6739 8.54236 10.6048 8.7116 10.4787 8.83768L9.84919 8.20813ZM9.78355 8.36605L9.78362 5.77045L10.6739 5.77048L10.6739 8.36607L9.78355 8.36605ZM9.78362 5.77046C9.78362 5.11012 9.30349 4.6456 8.80042 4.6456V3.75528C9.87259 3.75528 10.6739 4.69955 10.6739 5.77046H9.78362ZM8.37239 4.07815L8.3724 4.07812L9.22845 4.32271L9.22844 4.32273L8.37239 4.07815Z" fill="#4CAF4F" mask="url(#path-1-inside-1_212_1413)"/>
<path d="M4.54834 9.69672L4.52295 9.68304C4.51692 9.6939 4.50088 9.72313 4.47705 9.76605C4.48595 9.77052 4.49442 9.77536 4.50342 9.77875C4.51826 9.752 4.53292 9.72449 4.54834 9.69672Z" fill="#4CAF4F" stroke="#4CAF4F" stroke-width="0.445155"/>
<mask id="path-4-inside-2_212_1413" fill="white">
<path d="M13.7821 13.1833C13.5503 13.5699 13.1691 13.8345 12.7085 13.9286C12.2521 14.0216 11.772 13.9358 11.3565 13.6867L9.13063 12.3514C9.02232 12.2864 8.94571 12.1832 8.91503 12.0607C8.88459 11.9383 8.90363 11.8113 8.96852 11.7031C9.00903 11.6354 9.06582 11.5821 9.13166 11.5427L9.13103 11.5423C9.02272 11.4773 8.9461 11.3741 8.91559 11.2517C8.88491 11.1293 8.90395 11.0022 8.96892 10.8938C9.01076 10.8242 9.06811 10.7698 9.13355 10.7312C9.03853 10.6658 8.9701 10.5709 8.94194 10.4582C8.91126 10.3358 8.9303 10.2087 8.99527 10.1005C9.06016 9.99217 9.16344 9.91564 9.28584 9.88504C9.32406 9.87545 9.36284 9.87073 9.40123 9.87073C9.47658 9.87081 9.55052 9.88992 9.61848 9.92547C9.62265 9.83746 9.64884 9.75101 9.70029 9.67683C9.84132 9.47335 10.1239 9.41703 10.344 9.54909L12.1667 10.6424L11.9318 10.2192C11.8416 10.0577 11.8449 9.85836 11.9405 9.699C11.9871 9.62144 12.0536 9.55702 12.1331 9.51243C12.1985 9.47624 12.2693 9.4591 12.3391 9.4591C12.4891 9.45917 12.6348 9.53831 12.7123 9.6784C12.9826 10.1654 13.4926 11.0838 13.5285 11.1479C13.5361 11.159 13.5592 11.192 13.5789 11.2201C13.5977 11.2468 13.618 11.2723 13.639 11.2976C14.0941 11.8493 14.149 12.5718 13.7821 13.1833L13.7821 13.1833ZM13.4452 11.4577C13.4202 11.4274 13.3957 11.3965 13.3733 11.3646C13.3054 11.2682 13.3036 11.2657 13.2985 11.2404C13.2191 11.109 13.0253 10.7601 12.4925 9.80025C12.4458 9.71601 12.3396 9.68526 12.2551 9.73198C12.2134 9.75526 12.18 9.78775 12.1556 9.82842C12.1062 9.91077 12.1043 10.0137 12.151 10.0972L12.6133 10.9303C12.641 10.98 12.6317 11.042 12.5909 11.0814C12.5502 11.121 12.4879 11.1279 12.439 11.0988L10.2147 9.76446C10.1098 9.70162 9.97163 9.72624 9.90681 9.81984C9.86953 9.87364 9.85765 9.93783 9.87322 10.0005C9.88754 10.0578 9.92349 10.1061 9.97438 10.1366C9.97453 10.1367 9.97461 10.1368 9.97477 10.1369L11.4291 11.0094C11.4886 11.0451 11.5078 11.1222 11.4721 11.1817C11.4364 11.2411 11.3594 11.2605 11.2998 11.2248L9.51431 10.1537C9.46365 10.1233 9.40403 10.1143 9.34677 10.1287C9.28935 10.1431 9.24105 10.1789 9.21061 10.2298C9.18009 10.2805 9.17128 10.3401 9.18544 10.3974C9.19976 10.4546 9.2357 10.503 9.28652 10.5335L9.63395 10.7419L11.0719 11.6046C11.1314 11.6403 11.1506 11.7174 11.1149 11.777C11.0792 11.8363 11.0022 11.8557 10.9426 11.82L9.48796 10.9473C9.38335 10.8843 9.24711 10.9185 9.18418 11.0232C9.15367 11.0741 9.14486 11.1336 9.15901 11.1909C9.17333 11.2481 9.20928 11.2964 9.26017 11.327L9.61681 11.541L10.7148 12.1997C10.7743 12.2354 10.7935 12.3125 10.7578 12.3721C10.7221 12.4315 10.6451 12.451 10.5855 12.4151L9.48749 11.7563C9.43684 11.726 9.37745 11.717 9.31987 11.7314C9.26261 11.7457 9.21415 11.7816 9.18371 11.8323C9.15327 11.8831 9.14438 11.9428 9.15854 11.9999C9.17286 12.0572 9.20881 12.1055 9.2597 12.1361L11.4856 13.4714C11.8468 13.6881 12.2634 13.7631 12.6581 13.6826C13.0487 13.6028 13.3714 13.3797 13.5666 13.0542C13.8821 12.5286 13.8367 11.9317 13.4454 11.4577L13.4452 11.4577Z"/>
</mask>
<path d="M13.7821 13.1833C13.5503 13.5699 13.1691 13.8345 12.7085 13.9286C12.2521 14.0216 11.772 13.9358 11.3565 13.6867L9.13063 12.3514C9.02232 12.2864 8.94571 12.1832 8.91503 12.0607C8.88459 11.9383 8.90363 11.8113 8.96852 11.7031C9.00903 11.6354 9.06582 11.5821 9.13166 11.5427L9.13103 11.5423C9.02272 11.4773 8.9461 11.3741 8.91559 11.2517C8.88491 11.1293 8.90395 11.0022 8.96892 10.8938C9.01076 10.8242 9.06811 10.7698 9.13355 10.7312C9.03853 10.6658 8.9701 10.5709 8.94194 10.4582C8.91126 10.3358 8.9303 10.2087 8.99527 10.1005C9.06016 9.99217 9.16344 9.91564 9.28584 9.88504C9.32406 9.87545 9.36284 9.87073 9.40123 9.87073C9.47658 9.87081 9.55052 9.88992 9.61848 9.92547C9.62265 9.83746 9.64884 9.75101 9.70029 9.67683C9.84132 9.47335 10.1239 9.41703 10.344 9.54909L12.1667 10.6424L11.9318 10.2192C11.8416 10.0577 11.8449 9.85836 11.9405 9.699C11.9871 9.62144 12.0536 9.55702 12.1331 9.51243C12.1985 9.47624 12.2693 9.4591 12.3391 9.4591C12.4891 9.45917 12.6348 9.53831 12.7123 9.6784C12.9826 10.1654 13.4926 11.0838 13.5285 11.1479C13.5361 11.159 13.5592 11.192 13.5789 11.2201C13.5977 11.2468 13.618 11.2723 13.639 11.2976C14.0941 11.8493 14.149 12.5718 13.7821 13.1833L13.7821 13.1833ZM13.4452 11.4577C13.4202 11.4274 13.3957 11.3965 13.3733 11.3646C13.3054 11.2682 13.3036 11.2657 13.2985 11.2404C13.2191 11.109 13.0253 10.7601 12.4925 9.80025C12.4458 9.71601 12.3396 9.68526 12.2551 9.73198C12.2134 9.75526 12.18 9.78775 12.1556 9.82842C12.1062 9.91077 12.1043 10.0137 12.151 10.0972L12.6133 10.9303C12.641 10.98 12.6317 11.042 12.5909 11.0814C12.5502 11.121 12.4879 11.1279 12.439 11.0988L10.2147 9.76446C10.1098 9.70162 9.97163 9.72624 9.90681 9.81984C9.86953 9.87364 9.85765 9.93783 9.87322 10.0005C9.88754 10.0578 9.92349 10.1061 9.97438 10.1366C9.97453 10.1367 9.97461 10.1368 9.97477 10.1369L11.4291 11.0094C11.4886 11.0451 11.5078 11.1222 11.4721 11.1817C11.4364 11.2411 11.3594 11.2605 11.2998 11.2248L9.51431 10.1537C9.46365 10.1233 9.40403 10.1143 9.34677 10.1287C9.28935 10.1431 9.24105 10.1789 9.21061 10.2298C9.18009 10.2805 9.17128 10.3401 9.18544 10.3974C9.19976 10.4546 9.2357 10.503 9.28652 10.5335L9.63395 10.7419L11.0719 11.6046C11.1314 11.6403 11.1506 11.7174 11.1149 11.777C11.0792 11.8363 11.0022 11.8557 10.9426 11.82L9.48796 10.9473C9.38335 10.8843 9.24711 10.9185 9.18418 11.0232C9.15367 11.0741 9.14486 11.1336 9.15901 11.1909C9.17333 11.2481 9.20928 11.2964 9.26017 11.327L9.61681 11.541L10.7148 12.1997C10.7743 12.2354 10.7935 12.3125 10.7578 12.3721C10.7221 12.4315 10.6451 12.451 10.5855 12.4151L9.48749 11.7563C9.43684 11.726 9.37745 11.717 9.31987 11.7314C9.26261 11.7457 9.21415 11.7816 9.18371 11.8323C9.15327 11.8831 9.14438 11.9428 9.15854 11.9999C9.17286 12.0572 9.20881 12.1055 9.2597 12.1361L11.4856 13.4714C11.8468 13.6881 12.2634 13.7631 12.6581 13.6826C13.0487 13.6028 13.3714 13.3797 13.5666 13.0542C13.8821 12.5286 13.8367 11.9317 13.4454 11.4577L13.4452 11.4577Z" fill="#4CAF4F"/>
<path d="M13.7821 13.1833L13.6385 12.7619L14.789 12.3697L14.1639 13.4122L13.7821 13.1833ZM12.7085 13.9286L12.7976 14.3647L12.7974 14.3647L12.7085 13.9286ZM11.3565 13.6867L11.1276 14.0685L11.1275 14.0684L11.3565 13.6867ZM9.13063 12.3514L9.35963 11.9697L9.35963 11.9697L9.13063 12.3514ZM8.91503 12.0607L8.4832 12.1687L8.48305 12.1682L8.91503 12.0607ZM8.96852 11.7031L9.35043 11.9318L9.35031 11.932L8.96852 11.7031ZM9.13166 11.5427L9.36759 11.1652L9.98471 11.5509L9.36028 11.9247L9.13166 11.5427ZM9.13103 11.5423L9.36006 11.1605L9.36696 11.1648L9.13103 11.5423ZM8.91559 11.2517L9.34739 11.1435L9.34752 11.144L8.91559 11.2517ZM8.96892 10.8938L8.58712 10.665L8.58739 10.6645L8.96892 10.8938ZM9.13355 10.7312L9.38584 10.3644L9.96076 10.7599L9.35979 11.1146L9.13355 10.7312ZM8.94194 10.4582L9.37375 10.3501L9.3738 10.3503L8.94194 10.4582ZM8.99527 10.1005L9.37713 10.3293L9.37694 10.3296L8.99527 10.1005ZM9.28584 9.88504L9.39422 10.3168L9.39378 10.3169L9.28584 9.88504ZM9.40123 9.87073V9.42557L9.40169 9.42557L9.40123 9.87073ZM9.61848 9.92547L10.0631 9.94653L10.0301 10.6432L9.41212 10.3199L9.61848 9.92547ZM9.70029 9.67683L10.0662 9.93041L10.0661 9.9305L9.70029 9.67683ZM10.344 9.54909L10.115 9.93083L10.1149 9.9308L10.344 9.54909ZM12.1667 10.6424L12.5559 10.4264L13.3622 11.8786L11.9377 11.0242L12.1667 10.6424ZM11.9318 10.2192L12.3205 10.0024L12.321 10.0032L11.9318 10.2192ZM11.9405 9.699L11.5587 9.47005L11.5588 9.46986L11.9405 9.699ZM12.1331 9.51243L11.9154 9.12416L11.9175 9.12296L12.1331 9.51243ZM12.3391 9.4591V9.01394L12.3394 9.01394L12.3391 9.4591ZM12.7123 9.6784L12.3231 9.89442L12.3229 9.89398L12.7123 9.6784ZM13.5285 11.1479L13.1618 11.4002L13.1501 11.3832L13.14 11.3652L13.5285 11.1479ZM13.5789 11.2201L13.2151 11.4766L13.2148 11.4762L13.5789 11.2201ZM13.639 11.2976L13.9817 11.0135L13.9824 11.0143L13.639 11.2976ZM13.7821 13.1833L13.9257 13.6046L12.7746 13.997L13.4004 12.9542L13.7821 13.1833ZM13.4452 11.4577L13.4893 11.9006L13.2532 11.9242L13.102 11.7412L13.4452 11.4577ZM13.3733 11.3646L13.7372 11.1082L13.7378 11.109L13.3733 11.3646ZM13.2985 11.2404L13.6795 11.0101L13.7195 11.0763L13.7348 11.1521L13.2985 11.2404ZM12.4925 9.80025L12.1033 10.0163L12.1032 10.0162L12.4925 9.80025ZM12.2551 9.73198L12.0377 9.34349L12.0398 9.34235L12.2551 9.73198ZM12.1556 9.82842L12.5374 10.0573L12.5374 10.0574L12.1556 9.82842ZM12.151 10.0972L12.5397 9.88018L12.5402 9.88118L12.151 10.0972ZM12.6133 10.9303L12.2242 11.1464L12.2241 11.1463L12.6133 10.9303ZM12.5909 11.0814L12.2808 10.7621L12.2814 10.7615L12.5909 11.0814ZM12.439 11.0988L12.2114 11.4814L12.21 11.4806L12.439 11.0988ZM10.2147 9.76446L10.4435 9.38265L10.4437 9.38273L10.2147 9.76446ZM9.90681 9.81984L10.2728 10.0733L10.2727 10.0734L9.90681 9.81984ZM9.87322 10.0005L9.44136 10.1085L9.4412 10.1078L9.87322 10.0005ZM9.97438 10.1366L9.77526 10.5347L9.76003 10.5271L9.74543 10.5184L9.97438 10.1366ZM9.97477 10.1369L10.1739 9.73877L10.1891 9.7464L10.2038 9.75518L9.97477 10.1369ZM11.4291 11.0094L11.6581 10.6277L11.6583 10.6278L11.4291 11.0094ZM11.4721 11.1817L11.8539 11.4107L11.8536 11.4111L11.4721 11.1817ZM11.2998 11.2248L11.5288 10.843L11.5289 10.8431L11.2998 11.2248ZM9.51431 10.1537L9.74317 9.77185L9.74331 9.77193L9.51431 10.1537ZM9.34677 10.1287L9.45529 10.5605L9.45446 10.5607L9.34677 10.1287ZM9.21061 10.2298L9.59264 10.4583L9.59207 10.4593L9.21061 10.2298ZM9.18544 10.3974L8.75357 10.5053L8.7533 10.5042L9.18544 10.3974ZM9.28652 10.5335L9.05756 10.9153L9.05731 10.9151L9.28652 10.5335ZM9.63395 10.7419L9.86291 10.3601L9.86297 10.3602L9.63395 10.7419ZM11.0719 11.6046L11.3009 11.2229L11.3011 11.223L11.0719 11.6046ZM11.1149 11.777L11.4967 12.0059L11.4964 12.0064L11.1149 11.777ZM10.9426 11.82L10.7138 12.2019L10.7136 12.2017L10.9426 11.82ZM9.48796 10.9473L9.25894 11.329L9.25851 11.3287L9.48796 10.9473ZM9.18418 11.0232L9.5658 11.2524L9.5658 11.2524L9.18418 11.0232ZM9.15901 11.1909L8.72715 11.2988L8.72687 11.2977L9.15901 11.1909ZM9.26017 11.327L9.03116 11.7088L9.03079 11.7085L9.26017 11.327ZM9.61681 11.541L9.84581 11.1592L9.84583 11.1593L9.61681 11.541ZM10.7148 12.1997L10.9438 11.818L10.944 11.8181L10.7148 12.1997ZM10.7578 12.3721L11.1396 12.601L11.1393 12.6015L10.7578 12.3721ZM10.5855 12.4151L10.8145 12.0334L10.815 12.0337L10.5855 12.4151ZM9.48749 11.7563L9.71635 11.3745L9.71652 11.3746L9.48749 11.7563ZM9.31987 11.7314L9.21191 11.2995L9.21191 11.2995L9.31987 11.7314ZM9.18371 11.8323L8.80184 11.6036L8.802 11.6033L9.18371 11.8323ZM9.15854 11.9999L8.72668 12.1079L8.72643 12.1069L9.15854 11.9999ZM9.2597 12.1361L9.0307 12.5178L9.03032 12.5176L9.2597 12.1361ZM11.4856 13.4714L11.7146 13.0897L11.7146 13.0897L11.4856 13.4714ZM12.6581 13.6826L12.7471 14.1187L12.7471 14.1187L12.6581 13.6826ZM13.5666 13.0542L13.1848 12.8252L13.1849 12.8251L13.5666 13.0542ZM13.4454 11.4577L13.4013 11.0147L13.6375 10.9912L13.7887 11.1743L13.4454 11.4577ZM14.1639 13.4122C13.8648 13.911 13.3745 14.2469 12.7976 14.3647L12.6194 13.4924C12.9636 13.4221 13.2358 13.2288 13.4003 12.9543L14.1639 13.4122ZM12.7974 14.3647C12.2273 14.481 11.6344 14.3723 11.1276 14.0685L11.5854 13.3049C11.9096 13.4993 12.2768 13.5623 12.6196 13.4924L12.7974 14.3647ZM11.1275 14.0684L8.90163 12.7331L9.35963 11.9697L11.5855 13.3049L11.1275 14.0684ZM8.90164 12.7331C8.69231 12.6076 8.54259 12.406 8.4832 12.1687L9.34687 11.9526C9.34808 11.9574 9.34976 11.9604 9.35125 11.9624C9.35274 11.9644 9.35519 11.967 9.35963 11.9697L8.90164 12.7331ZM8.48305 12.1682C8.42408 11.9312 8.46139 11.6832 8.58673 11.4742L9.35031 11.932C9.34765 11.9364 9.34666 11.9399 9.34628 11.9425C9.3459 11.945 9.34584 11.9485 9.34701 11.9532L8.48305 12.1682ZM8.5866 11.4744C8.66915 11.3365 8.78193 11.2332 8.90304 11.1607L9.36028 11.9247C9.35486 11.9279 9.35198 11.9304 9.35082 11.9315C9.34977 11.9326 9.34993 11.9326 9.35043 11.9318L8.5866 11.4744ZM8.89573 11.9202L8.8951 11.9198L9.36696 11.1648L9.36759 11.1652L8.89573 11.9202ZM8.90204 11.924C8.6928 11.7985 8.54287 11.597 8.48365 11.3594L9.34752 11.144C9.34865 11.1486 9.35023 11.1514 9.35168 11.1534C9.35314 11.1553 9.35558 11.1579 9.36002 11.1606L8.90204 11.924ZM8.48379 11.36C8.42426 11.1225 8.46171 10.8741 8.58712 10.665L9.35072 11.1227C9.348 11.1273 9.34703 11.1308 9.34667 11.1332C9.3463 11.1357 9.34625 11.139 9.34739 11.1435L8.48379 11.36ZM8.58739 10.6645C8.66957 10.5278 8.78187 10.4218 8.90731 10.3478L9.35979 11.1146C9.3569 11.1163 9.35494 11.1179 9.35364 11.1191C9.35242 11.1203 9.3514 11.1216 9.35044 11.1232L8.58739 10.6645ZM8.88125 11.0979C8.70144 10.9742 8.56587 10.7894 8.51007 10.5662L9.3738 10.3503C9.37433 10.3524 9.37503 10.3539 9.37618 10.3555C9.37744 10.3573 9.38022 10.3606 9.38584 10.3644L8.88125 11.0979ZM8.51012 10.5664C8.45065 10.3289 8.488 10.0806 8.6136 9.87137L9.37694 10.3296C9.3743 10.334 9.37337 10.3374 9.37301 10.3397C9.37266 10.3421 9.37259 10.3454 9.37375 10.3501L8.51012 10.5664ZM8.61341 9.87169C8.73904 9.662 8.94088 9.51242 9.17789 9.45317L9.39378 10.3169C9.38903 10.3181 9.38607 10.3198 9.3841 10.3212C9.38212 10.3227 9.37966 10.325 9.37713 10.3293L8.61341 9.87169ZM9.17745 9.45328C9.2512 9.43477 9.32638 9.42557 9.40123 9.42557V10.3159C9.39931 10.3159 9.39693 10.3161 9.39422 10.3168L9.17745 9.45328ZM9.40169 9.42557C9.55291 9.42573 9.69712 9.46422 9.82484 9.53104L9.41212 10.3199C9.40789 10.3177 9.40486 10.3167 9.40318 10.3163C9.40155 10.3159 9.40082 10.3159 9.40077 10.3159L9.40169 9.42557ZM9.17383 9.90441C9.18149 9.74252 9.23031 9.57338 9.33448 9.42315L10.0661 9.9305C10.0674 9.92864 10.0638 9.93239 10.0631 9.94653L9.17383 9.90441ZM9.33442 9.42324C9.61638 9.01644 10.163 8.92139 10.573 9.16737L10.1149 9.9308C10.1019 9.92302 10.0892 9.92177 10.0792 9.92375C10.0695 9.92568 10.0668 9.92946 10.0662 9.93041L9.33442 9.42324ZM10.5729 9.16734L12.3957 10.2607L11.9377 11.0242L10.115 9.93083L10.5729 9.16734ZM11.7775 10.8585L11.5426 10.4353L12.321 10.0032L12.5559 10.4264L11.7775 10.8585ZM11.543 10.4361C11.3749 10.1348 11.3816 9.76543 11.5587 9.47005L12.3223 9.92795C12.3083 9.95129 12.3084 9.98059 12.3205 10.0024L11.543 10.4361ZM11.5588 9.46986C11.6457 9.32526 11.769 9.20627 11.9154 9.12416L12.3509 9.90069C12.3382 9.90778 12.3285 9.91763 12.3221 9.92815L11.5588 9.46986ZM11.9175 9.12296C12.0507 9.04923 12.196 9.01394 12.3391 9.01394V9.90425C12.3426 9.90425 12.3462 9.90326 12.3487 9.90189L11.9175 9.12296ZM12.3394 9.01394C12.6436 9.0141 12.9423 9.17459 13.1018 9.46282L12.3229 9.89398C12.3246 9.89717 12.3278 9.9003 12.331 9.90213C12.3335 9.90358 12.336 9.90425 12.3389 9.90425L12.3394 9.01394ZM13.1016 9.46238C13.3722 9.94994 13.8816 10.8673 13.917 10.9306L13.14 11.3652C13.1037 11.3003 12.5931 10.3808 12.3231 9.89442L13.1016 9.46238ZM13.8952 10.8956C13.9015 10.9047 13.9235 10.9363 13.9431 10.9641L13.2148 11.4762C13.1948 11.4478 13.1707 11.4132 13.1618 11.4002L13.8952 10.8956ZM13.9427 10.9636C13.9519 10.9767 13.964 10.9921 13.9817 11.0135L13.2963 11.5817C13.2721 11.5525 13.2435 11.5169 13.2151 11.4766L13.9427 10.9636ZM13.9824 11.0143C14.557 11.7108 14.6282 12.6385 14.1638 13.4123L13.4004 12.9542C13.6699 12.5051 13.6313 11.9878 13.2956 11.5809L13.9824 11.0143ZM13.6385 12.7619L13.6385 12.7619L13.9257 13.6046L13.9257 13.6046L13.6385 12.7619ZM13.102 11.7412C13.0739 11.7071 13.0409 11.6659 13.0089 11.6202L13.7378 11.109C13.7504 11.127 13.7665 11.1477 13.7884 11.1742L13.102 11.7412ZM13.0095 11.6211C12.9814 11.5813 12.9513 11.5391 12.9313 11.506C12.9179 11.4838 12.9 11.4515 12.8849 11.4103C12.8702 11.3702 12.8637 11.3359 12.8622 11.3288L13.7348 11.1521C13.7359 11.1576 13.7315 11.133 13.7207 11.1035C13.7095 11.0729 13.6972 11.052 13.6934 11.0457C13.6916 11.0427 13.6909 11.0417 13.6923 11.0438C13.6936 11.0458 13.696 11.0494 13.7 11.0551C13.7083 11.0672 13.7197 11.0834 13.7372 11.1082L13.0095 11.6211ZM12.9176 11.4707C12.8325 11.33 12.6323 10.9694 12.1033 10.0163L12.8817 9.58421C13.4182 10.5507 13.6057 10.888 13.6795 11.0101L12.9176 11.4707ZM12.1032 10.0162C12.1753 10.1461 12.3394 10.194 12.4703 10.1216L12.0398 9.34235C12.3398 9.17655 12.7163 9.2859 12.8818 9.58435L12.1032 10.0162ZM12.4724 10.1205C12.4986 10.1058 12.5218 10.0833 12.5374 10.0573L11.7738 9.5995C11.8382 9.49219 11.9283 9.4047 12.0377 9.3435L12.4724 10.1205ZM12.5374 10.0574C12.5693 10.0042 12.5714 9.93704 12.5397 9.88019L11.7623 10.3142C11.6373 10.0903 11.6432 9.81729 11.7739 9.59944L12.5374 10.0574ZM12.5402 9.88118L13.0026 10.7142L12.2241 11.1463L11.7618 10.3132L12.5402 9.88118ZM13.0025 10.7141C13.1278 10.9398 13.0862 11.2217 12.9004 11.4014L12.2814 10.7615C12.1773 10.8622 12.1541 11.0202 12.2242 11.1464L13.0025 10.7141ZM12.901 11.4008C12.7138 11.5827 12.4306 11.6118 12.2114 11.4814L12.6665 10.7162C12.5452 10.6441 12.3866 10.6594 12.2808 10.7621L12.901 11.4008ZM12.21 11.4806L9.98567 10.1462L10.4437 9.38273L12.668 10.7171L12.21 11.4806ZM9.98581 10.1463C10.0292 10.1723 10.0783 10.1799 10.1243 10.1716C10.1703 10.1634 10.2297 10.1355 10.2728 10.0733L9.54084 9.56641C9.75512 9.25698 10.1625 9.21419 10.4435 9.38265L9.98581 10.1463ZM10.2727 10.0734C10.3074 10.0233 10.3209 9.95618 10.3052 9.8932L9.4412 10.1078C9.39441 9.91948 9.43161 9.72403 9.54092 9.56628L10.2727 10.0734ZM10.3051 9.89255C10.2905 9.83425 10.2528 9.78451 10.2033 9.75483L9.74543 10.5184C9.59415 10.4276 9.48457 10.2813 9.44136 10.1085L10.3051 9.89255ZM10.1735 9.73846C10.2137 9.75857 10.2433 9.78099 10.262 9.79684C10.2712 9.80463 10.2784 9.81131 10.2827 9.81544C10.2849 9.81754 10.2866 9.81926 10.2877 9.82031C10.2882 9.82084 10.2886 9.82128 10.2889 9.82154C10.289 9.82168 10.2892 9.82179 10.2892 9.82186C10.2893 9.82189 10.2893 9.82192 10.2893 9.82194C10.2893 9.82194 10.2893 9.82195 10.2893 9.82196C10.2893 9.82196 10.2893 9.82196 10.2893 9.82196C10.2893 9.82196 10.2893 9.82196 10.2893 9.82196C10.2899 9.82252 10.2866 9.81925 10.2828 9.81552C10.2785 9.81143 10.2714 9.80478 10.2622 9.79701C10.2435 9.78122 10.214 9.75884 10.1739 9.73877L9.77565 10.535C9.73544 10.5149 9.70585 10.4925 9.68712 10.4767C9.67791 10.4689 9.67078 10.4622 9.66648 10.4581C9.66429 10.456 9.66254 10.4542 9.66148 10.4532C9.66094 10.4527 9.6605 10.4522 9.66024 10.452C9.6601 10.4518 9.65999 10.4517 9.65993 10.4517C9.65989 10.4516 9.65986 10.4516 9.65985 10.4516C9.65984 10.4516 9.65983 10.4516 9.65983 10.4516C9.65982 10.4515 9.65982 10.4515 9.65982 10.4515C9.65982 10.4515 9.65982 10.4515 9.65982 10.4515C9.65926 10.451 9.66251 10.4543 9.6664 10.458C9.67066 10.4621 9.67776 10.4687 9.68694 10.4765C9.7056 10.4923 9.73512 10.5147 9.77526 10.5347L10.1735 9.73846ZM10.2038 9.75518L11.6581 10.6277L11.2001 11.3911L9.74576 10.5186L10.2038 9.75518ZM11.6583 10.6278C11.9285 10.79 12.0159 11.1405 11.8539 11.4107L11.0904 10.9528C10.9997 11.1039 11.0486 11.3002 11.1999 11.391L11.6583 10.6278ZM11.8536 11.4111C11.6917 11.6803 11.3417 11.7691 11.0707 11.6064L11.5289 10.8431C11.3771 10.752 11.1811 10.8019 11.0906 10.9523L11.8536 11.4111ZM11.0708 11.6065L9.28531 10.5354L9.74331 9.77193L11.5288 10.843L11.0708 11.6065ZM9.28545 10.5355C9.33546 10.5655 9.39712 10.5751 9.45529 10.5605L9.23825 9.69701C9.41094 9.6536 9.59185 9.68115 9.74317 9.77185L9.28545 10.5355ZM9.45446 10.5607C9.51227 10.5463 9.56252 10.5087 9.59264 10.4583L8.82858 10.0013C8.91959 9.84916 9.06643 9.73985 9.23908 9.6968L9.45446 10.5607ZM9.59207 10.4593C9.62264 10.4085 9.63155 10.347 9.61758 10.2905L8.7533 10.5042C8.71102 10.3332 8.73755 10.1526 8.82915 10.0003L9.59207 10.4593ZM9.61731 10.2894C9.60281 10.2314 9.56536 10.1817 9.51572 10.1519L9.05731 10.9151C8.90605 10.8243 8.79671 10.6778 8.75358 10.5053L9.61731 10.2894ZM9.51547 10.1517L9.86291 10.3601L9.40499 11.1236L9.05756 10.9153L9.51547 10.1517ZM9.86297 10.3602L11.3009 11.2229L10.8429 11.9863L9.40493 11.1236L9.86297 10.3602ZM11.3011 11.223C11.5713 11.3853 11.6588 11.7357 11.4967 12.0059L10.7332 11.548C10.6425 11.6991 10.6914 11.8954 10.8427 11.9862L11.3011 11.223ZM11.4964 12.0064C11.3343 12.276 10.9843 12.3639 10.7138 12.2019L11.1713 11.4381C11.0201 11.3475 10.8241 11.3967 10.7334 11.5476L11.4964 12.0064ZM10.7136 12.2017L9.25894 11.329L9.71698 10.5655L11.1716 11.4383L10.7136 12.2017ZM9.25851 11.3287C9.36541 11.393 9.50253 11.3578 9.5658 11.2524L8.80257 10.794C8.9917 10.4791 9.40129 10.3756 9.71742 10.5658L9.25851 11.3287ZM9.5658 11.2524C9.59615 11.2019 9.60514 11.1406 9.59116 11.084L8.72687 11.2977C8.68457 11.1266 8.71118 10.9462 8.80257 10.794L9.5658 11.2524ZM9.59088 11.0829C9.57629 11.0245 9.53863 10.975 9.48954 10.9455L9.03079 11.7085C8.87992 11.6178 8.77037 11.4717 8.72715 11.2988L9.59088 11.0829ZM9.48917 10.9453L9.84581 11.1592L9.3878 11.9227L9.03116 11.7088L9.48917 10.9453ZM9.84583 11.1593L10.9438 11.818L10.4858 12.5815L9.38778 11.9227L9.84583 11.1593ZM10.944 11.8181C11.2142 11.9804 11.3016 12.3308 11.1396 12.601L10.3761 12.1431C10.2854 12.2942 10.3343 12.4905 10.4856 12.5814L10.944 11.8181ZM11.1393 12.6015C10.9777 12.8703 10.6276 12.96 10.356 12.7966L10.815 12.0337C10.6626 11.942 10.4665 11.9926 10.3763 12.1427L11.1393 12.6015ZM10.3565 12.7968L9.25847 12.1381L9.71652 11.3746L10.8145 12.0334L10.3565 12.7968ZM9.25863 12.1382C9.30877 12.1682 9.37047 12.1776 9.42783 12.1633L9.21191 11.2995C9.38442 11.2564 9.5649 11.2837 9.71635 11.3745L9.25863 12.1382ZM9.42783 12.1633C9.48511 12.1489 9.53513 12.1118 9.56543 12.0614L8.802 11.6033C8.89318 11.4513 9.0401 11.3425 9.21191 11.2995L9.42783 12.1633ZM9.56559 12.0611C9.5955 12.0112 9.6048 11.9501 9.59065 11.893L8.72643 12.1069C8.68397 11.9354 8.71104 11.7551 8.80184 11.6036L9.56559 12.0611ZM9.59041 11.892C9.57582 11.8336 9.53816 11.7841 9.48907 11.7546L9.03032 12.5176C8.87945 12.4269 8.7699 12.2808 8.72668 12.1079L9.59041 11.892ZM9.4887 11.7544L11.7146 13.0897L11.2566 13.8531L9.0307 12.5178L9.4887 11.7544ZM11.7146 13.0897C11.9851 13.252 12.2888 13.3036 12.5691 13.2464L12.7471 14.1187C12.2379 14.2226 11.7085 14.1242 11.2566 13.8531L11.7146 13.0897ZM12.569 13.2464C12.8443 13.1902 13.0574 13.0377 13.1848 12.8252L13.9483 13.2832C13.6853 13.7217 13.253 14.0154 12.7471 14.1187L12.569 13.2464ZM13.1849 12.8251C13.4029 12.4619 13.3738 12.0703 13.1021 11.741L13.7887 11.1743C14.2996 11.7932 14.3612 12.5953 13.9482 13.2833L13.1849 12.8251ZM13.4895 11.9006L13.4893 11.9006L13.4011 11.0147L13.4013 11.0147L13.4895 11.9006Z" fill="#4CAF4F" mask="url(#path-4-inside-2_212_1413)"/>
</svg>
