<svg width="17" height="17" viewBox="0 0 17 17" fill="none" xmlns="http://www.w3.org/2000/svg">
<g clip-path="url(#clip0_212_1407)">
<path d="M11.0131 3.86603H11.014C11.802 3.86374 12.5718 4.10379 13.2181 4.5545C13.8644 5.00522 14.3562 5.64444 14.6263 6.38458C14.8965 7.12483 14.932 7.93109 14.7279 8.6922C14.5238 9.45317 14.0899 10.1328 13.4857 10.6385L13.2816 10.8094L13.5238 10.9188C14.5164 11.3679 15.3705 12.0746 15.9974 12.9656L15.9984 12.9666C16.043 13.0289 16.0751 13.0999 16.0922 13.1746C16.1091 13.2492 16.1111 13.3268 16.098 13.4022C16.0849 13.4775 16.0571 13.5496 16.016 13.6141C15.9748 13.6786 15.9207 13.7345 15.8578 13.7781L15.8558 13.7791C15.7584 13.8487 15.6416 13.8859 15.5219 13.8856L15.4515 13.8817C15.3823 13.8729 15.3146 13.8516 15.2523 13.8192C15.1695 13.776 15.0984 13.7136 15.0443 13.6375C14.5891 12.9916 13.9848 12.4646 13.2836 12.1004C12.6701 11.7818 11.9977 11.5956 11.3099 11.5535L11.014 11.5447L10.8988 11.533C10.7868 11.5105 10.683 11.4557 10.601 11.3738C10.4915 11.2643 10.4292 11.1156 10.4291 10.9608C10.4291 10.8058 10.4914 10.6572 10.601 10.5477C10.7105 10.4381 10.8591 10.3758 11.014 10.3758C11.7223 10.3757 12.4019 10.0944 12.9027 9.59357C13.4034 9.0927 13.6849 8.4131 13.6849 7.7049C13.6848 6.99665 13.4035 6.31704 12.9027 5.81622C12.4019 5.31541 11.7223 5.03409 11.014 5.034C10.7698 5.03354 10.5262 5.06758 10.2914 5.13458L10.2894 5.13556C10.2154 5.15756 10.1377 5.16426 10.0609 5.15607C9.98386 5.14781 9.90907 5.12411 9.84119 5.08673C9.77333 5.04936 9.71356 4.99897 9.66541 4.93829C9.61726 4.87761 9.5819 4.80779 9.56091 4.73322C9.53997 4.65868 9.53389 4.58057 9.54333 4.50372C9.55281 4.42703 9.57731 4.35307 9.6156 4.28595C9.65403 4.21866 9.70553 4.15935 9.76697 4.11212C9.82829 4.065 9.89827 4.0304 9.97302 4.01056L9.97595 4.00958C10.3131 3.91359 10.6625 3.86548 11.0131 3.86603ZM5.9115 3.86115C6.69888 3.86115 7.4675 4.10316 8.11267 4.5545C8.75791 5.00601 9.24911 5.6457 9.51892 6.38556C9.7886 7.12531 9.82453 7.93048 9.62146 8.69122C9.41831 9.45195 8.98572 10.1316 8.38318 10.6385L8.18103 10.8094L8.42224 10.9188C9.29083 11.3119 10.0537 11.9019 10.6508 12.6404L10.8959 12.9656L10.9008 12.9725C10.9495 13.0349 10.9851 13.1069 11.0052 13.1834C11.0253 13.2598 11.0295 13.3396 11.0179 13.4178C11.0063 13.496 10.9793 13.5712 10.9379 13.6385C10.8964 13.7058 10.8414 13.7638 10.7767 13.8094C10.712 13.855 10.6384 13.8868 10.5609 13.9031C10.4837 13.9195 10.404 13.9205 10.3265 13.9051C10.2489 13.8896 10.175 13.8581 10.1097 13.8133C10.0772 13.7909 10.0472 13.7654 10.0199 13.7371L9.94666 13.6443L9.94177 13.6375C9.4875 12.9906 8.88439 12.462 8.18298 12.0975C7.4815 11.7329 6.70207 11.5428 5.9115 11.5428C5.12114 11.5428 4.34231 11.733 3.64099 12.0975C2.93949 12.4621 2.33552 12.9905 1.88123 13.6375V13.6385C1.82783 13.7151 1.75609 13.778 1.67322 13.8211C1.59043 13.8641 1.49795 13.8858 1.40466 13.8856H1.40369C1.28395 13.8859 1.16712 13.8487 1.0697 13.7791H1.06873C0.942332 13.6899 0.856914 13.5536 0.830444 13.4012C0.804041 13.2488 0.839227 13.0922 0.928101 12.9656C1.55502 12.0746 2.40917 11.3679 3.40173 10.9188L3.64294 10.8094L3.43982 10.6385C2.83745 10.1317 2.40565 9.4518 2.20251 8.69122C1.99943 7.93044 2.03533 7.12534 2.30505 6.38556C2.57486 5.64571 3.0651 5.006 3.71033 4.5545C4.35549 4.10306 5.12408 3.86121 5.9115 3.86115ZM6.43298 5.08575C5.91492 4.9827 5.37803 5.03599 4.89001 5.2381C4.40197 5.44025 3.98428 5.78226 3.6908 6.2215C3.39746 6.66059 3.24067 7.17683 3.2406 7.7049C3.2406 8.41312 3.52213 9.0927 4.02283 9.59357C4.52365 10.0944 5.20323 10.3757 5.9115 10.3758C6.43976 10.3758 6.95664 10.2191 7.39587 9.9256C7.83493 9.63213 8.17717 9.21526 8.37927 8.72736C8.5814 8.23938 8.63461 7.70242 8.53162 7.18439C8.42856 6.66628 8.17371 6.18976 7.80017 5.81622C7.42672 5.4429 6.95089 5.1888 6.43298 5.08575Z" fill="#4CAF4F" stroke="#4CAF4F" stroke-width="0.333867"/>
</g>
<defs>
<clipPath id="clip0_212_1407">
<rect width="16.0256" height="16.0256" fill="white" transform="translate(0.403076 0.944458)"/>
</clipPath>
</defs>
</svg>
