<svg width="148" height="111" viewBox="0 0 148 111" fill="none" xmlns="http://www.w3.org/2000/svg">
<path d="M74.1172 110.287C105.688 110.287 131.281 108.793 131.281 106.95C131.281 105.107 105.688 103.612 74.1172 103.612C42.5465 103.612 16.9534 105.107 16.9534 106.95C16.9534 108.793 42.5465 110.287 74.1172 110.287Z" fill="#F5F5F5"/>
<path d="M103.379 32.4148L100.454 31.2355C100.454 31.2355 96.5948 38.273 95.4892 38.6297C93.9855 39.1132 90.8722 40.4576 89.0266 40.6935C88.776 40.9883 88.3662 41.9052 88.4045 42.2384C90.884 43.0668 96.3324 41.9671 97.4999 41.1004C100.156 39.1339 103.379 32.4148 103.379 32.4148Z" fill="#E58A7B"/>
<path d="M104.278 30.8138C104.823 32.8275 101.869 36.8784 101.869 36.8784L97.9982 34.7085C97.9982 34.7085 98.7234 33.0427 99.6079 31.3475C101.026 28.6085 103.656 28.5171 104.278 30.8138Z" fill="#4CAF4F"/>
<path opacity="0.2" d="M104.278 30.8138C104.823 32.8275 101.869 36.8784 101.869 36.8784L97.9982 34.7085C97.9982 34.7085 98.7234 33.0427 99.6079 31.3475C101.026 28.6085 103.656 28.5171 104.278 30.8138Z" fill="black"/>
<path opacity="0.2" d="M99.5342 35.5753L101.058 36.4303L101.327 31.7514C100.439 32.4325 99.8143 34.4844 99.5342 35.5753Z" fill="black"/>
<path d="M101.731 29.2985C101.731 29.2985 98.7175 36.0028 100.475 48.4857H112.347C112.536 46.6637 111.911 37.7718 114.172 29.1864C112.87 28.9319 111.552 28.7635 110.228 28.6823C108.547 28.5849 106.863 28.5849 105.183 28.6823C104.018 28.8005 102.864 29.0065 101.731 29.2985Z" fill="#4CAF4F"/>
<path opacity="0.2" d="M101.731 29.2985C101.731 29.2985 98.7175 36.0028 100.475 48.4857H112.347C112.536 46.6637 111.911 37.7718 114.172 29.1864C112.87 28.9319 111.552 28.7635 110.228 28.6823C108.547 28.5849 106.863 28.5849 105.183 28.6823C104.018 28.8005 102.864 29.0065 101.731 29.2985Z" fill="black"/>
<g style="mix-blend-mode:multiply">
<path d="M98.977 107.215C98.9593 107.534 103.461 107.79 109.031 107.79C114.6 107.79 119.134 107.534 119.152 107.215C119.17 106.897 114.671 106.643 109.098 106.643C103.526 106.643 98.9976 106.9 98.977 107.215Z" fill="#E8ECF1"/>
</g>
<path d="M106.902 98.8487L104.796 99.6639L106.61 104.35L108.716 103.535L106.902 98.8487Z" fill="#E58A7B"/>
<path d="M116.292 104.948H114.072L113.258 99.8091H115.478L116.292 104.948Z" fill="#E58A7B"/>
<path d="M113.919 104.691H116.413C116.456 104.692 116.498 104.707 116.531 104.735C116.564 104.763 116.586 104.802 116.593 104.845L116.914 106.817C116.921 106.867 116.917 106.917 116.903 106.965C116.888 107.013 116.864 107.057 116.831 107.094C116.798 107.132 116.757 107.162 116.711 107.182C116.666 107.202 116.616 107.213 116.566 107.212C115.697 107.197 115.278 107.144 114.181 107.144C113.506 107.144 112.117 107.215 111.18 107.215C110.242 107.215 110.18 106.295 110.567 106.21C112.3 105.835 112.972 105.325 113.55 104.83C113.652 104.74 113.783 104.691 113.919 104.691Z" fill="#263238"/>
<path d="M106.548 103.931L108.907 103.241C108.949 103.229 108.994 103.232 109.034 103.249C109.074 103.266 109.107 103.297 109.128 103.335L110.012 105.104C110.033 105.149 110.043 105.198 110.043 105.247C110.043 105.297 110.032 105.345 110.011 105.39C109.99 105.435 109.959 105.474 109.921 105.506C109.883 105.537 109.839 105.56 109.791 105.573C108.933 105.809 108.358 105.953 107.285 106.266C106.545 106.481 105.79 106.832 105.059 107.065C104.552 107.227 103.361 107.233 102.745 107.233C101.834 107.233 101.63 106.272 102.023 106.227C103.01 106.118 103.143 106.168 103.688 105.894C104.581 105.504 105.39 104.946 106.071 104.249C106.199 104.103 106.364 103.993 106.548 103.931Z" fill="#263238"/>
<path d="M89.398 40.6817L86.9569 39.6586L85.9515 42.3651C86.9521 42.5175 87.97 42.5175 88.9706 42.3651L89.398 40.6817Z" fill="#E58A7B"/>
<path d="M85.1408 39.5879L85.0759 41.3863L85.9516 42.3593L86.9569 39.6528L85.1408 39.5879Z" fill="#E58A7B"/>
<path d="M107.191 99.2466L105.079 100.062L106.014 102.485L108.126 101.67L107.191 99.2466Z" fill="#CF6F64"/>
<path d="M115.478 99.8091H113.258L113.68 102.46H115.9L115.478 99.8091Z" fill="#CF6F64"/>
<path opacity="0.2" d="M100.097 45.11C100.142 45.6436 100.192 46.189 100.256 46.7492L109.084 43.8835C110.462 43.4749 111.66 42.6087 112.48 41.4276C112.515 40.6404 112.56 39.8119 112.627 38.9481C112.657 38.5294 112.692 38.099 112.731 37.6627C112.769 37.2263 112.822 36.7428 112.878 36.277L100.097 45.11Z" fill="black"/>
<path d="M102.981 35.4397L102.686 35.4043C102.86 33.9302 103.96 32.7686 105.118 32.798V33.0929C104.104 33.0722 103.137 34.1189 102.981 35.4397Z" fill="white"/>
<path d="M104.552 38.1609H104.502V37.8661C105.516 37.9044 106.469 36.846 106.625 35.5281L106.92 35.5635C106.763 37.0052 105.699 38.1609 104.552 38.1609Z" fill="white"/>
<path d="M110.062 23.0009C109.647 24.6254 109.157 27.6002 110.228 28.6822C110.228 28.6822 109.479 30.3303 106.463 30.3303C103.706 30.3303 105.183 28.6822 105.183 28.6822C107.017 28.2518 107.049 26.9133 106.808 25.6455L110.062 23.0009Z" fill="#E58A7B"/>
<path d="M108.736 24.08L106.811 25.6455C106.87 25.9369 106.905 26.2328 106.914 26.53C107.477 27.0902 108.606 25.6721 108.721 24.9468C108.779 24.6613 108.784 24.3674 108.736 24.08Z" fill="#CF6F64"/>
<path d="M103.5 22.9803C103.634 23.2125 103.814 23.4145 104.03 23.5738C104.245 23.7331 104.491 23.8462 104.753 23.906C105.46 24.0623 105.814 23.4107 105.619 22.7562C105.445 22.1666 104.865 21.3735 104.145 21.5091C103.991 21.5408 103.847 21.609 103.725 21.708C103.602 21.8069 103.506 21.9338 103.442 22.0778C103.379 22.2219 103.351 22.379 103.361 22.536C103.371 22.693 103.419 22.8454 103.5 22.9803Z" fill="#CF6F64"/>
<path d="M104.67 17.7825C103.567 18.2867 103.178 22.6678 104.564 23.3164C105.95 23.965 106.757 16.8244 104.67 17.7825Z" fill="#263238"/>
<path d="M110.399 20.5568C110.133 22.7562 110.104 24.0505 108.924 25.1767C108.559 25.5505 108.097 25.816 107.591 25.9439C107.084 26.0718 106.551 26.0571 106.052 25.9016C105.553 25.746 105.107 25.4556 104.763 25.0623C104.418 24.6691 104.189 24.1883 104.101 23.6731C103.744 21.6978 104.237 18.4341 106.442 17.5584C106.905 17.3541 107.415 17.2773 107.918 17.3362C108.421 17.3951 108.899 17.5874 109.303 17.8933C109.706 18.1992 110.021 18.6075 110.213 19.0758C110.406 19.5441 110.47 20.0555 110.399 20.5568Z" fill="#E58A7B"/>
<path d="M106.775 18.9206C108.409 18.5049 109.608 18.2219 109.178 19.581C108.609 21.3971 107.925 23.1543 108.842 23.2339C109.402 23.284 111.879 22.2345 111.563 21.1701C111.289 20.2444 112.448 19.9908 112.654 19.522C113.418 17.8239 111.233 18.0479 111.622 17.016C112.011 15.9841 109.853 14.3213 108.674 15.1498C106.755 16.4883 103.461 16.4677 105.192 14.2653C106.433 12.6939 104.219 13.0152 104.219 13.0152C104.219 13.0152 105.558 13.8083 103.305 15.0348C100.923 16.3438 103.108 19.8611 106.775 18.9206Z" fill="#263238"/>
<path d="M111.265 22.9803C110.943 23.4469 110.458 23.7768 109.906 23.906C109.178 24.0623 108.898 23.4107 109.172 22.7562C109.417 22.1666 110.089 21.3735 110.785 21.5091C111.48 21.6447 111.64 22.4024 111.265 22.9803Z" fill="#E58A7B"/>
<path d="M100.475 48.4857C100.475 48.4857 98.4816 66.3227 98.3253 73.0919C98.1661 80.1323 105.08 102.1 105.08 102.1L108.618 100.626C108.618 100.626 104.49 80.554 105.08 73.6403C105.705 66.1016 108.288 48.4975 108.288 48.4975L100.475 48.4857Z" fill="#4CAF4F"/>
<path opacity="0.2" d="M105.428 53.3828C103.839 56.679 104.909 63.1976 105.77 67.0598C106.097 64.3326 106.486 61.3726 106.855 58.6337C106.819 54.4235 106.492 51.1716 105.428 53.3828Z" fill="black"/>
<path d="M108.462 99.4582C108.479 99.4582 108.88 100.584 108.88 100.584L104.8 102.3L104.157 101.103L108.462 99.4582Z" fill="#4CAF4F"/>
<path d="M104.688 48.4857C104.688 48.4857 106.212 65.45 107.22 71.8035C108.329 78.7644 112.675 101.947 112.675 101.947H116.74C116.74 101.947 114.305 79.3275 113.845 72.4344C113.344 64.9577 112.347 48.4857 112.347 48.4857H104.688Z" fill="#4CAF4F"/>
<path d="M116.802 100.888C116.82 100.888 116.938 102.023 116.938 102.023H112.468L112.15 100.72L116.802 100.888Z" fill="#4CAF4F"/>
<path opacity="0.2" d="M115.245 99.5437C115.236 99.5438 115.227 99.5406 115.22 99.5346C115.213 99.5287 115.209 99.5204 115.207 99.5113C115.184 99.3049 112.987 78.8734 112.574 72.6821C112.126 65.966 111.224 51.0684 111.215 50.918C111.215 50.9131 111.215 50.9082 111.217 50.9036C111.219 50.8989 111.221 50.8947 111.224 50.8911C111.228 50.8875 111.232 50.8846 111.236 50.8826C111.241 50.8807 111.246 50.8797 111.251 50.8797C111.26 50.8797 111.27 50.8833 111.277 50.8899C111.284 50.8964 111.288 50.9054 111.289 50.9151C111.289 51.0654 112.2 65.9512 112.648 72.6791C113.061 78.8705 115.257 99.2872 115.278 99.5083C115.279 99.5132 115.279 99.5182 115.277 99.523C115.276 99.5278 115.274 99.5323 115.271 99.5362C115.268 99.54 115.264 99.5433 115.26 99.5456C115.255 99.5479 115.25 99.5493 115.245 99.5496V99.5437Z" fill="black"/>
<path d="M107.026 21.1701C107.026 21.3499 106.914 21.4944 106.796 21.4944C106.678 21.4944 106.592 21.3499 106.604 21.1701C106.616 20.9902 106.716 20.8458 106.834 20.8458C106.952 20.8458 107.038 20.9932 107.026 21.1701Z" fill="#263238"/>
<path d="M105.003 21.1701C105.003 21.3499 104.888 21.4944 104.773 21.4944C104.658 21.4944 104.57 21.3499 104.579 21.1701C104.588 20.9902 104.694 20.8458 104.812 20.8458C104.93 20.8458 105.015 20.9932 105.003 21.1701Z" fill="#263238"/>
<path d="M105.64 21.2615C105.394 21.8106 105.077 22.3251 104.697 22.7916C104.991 23.0864 105.543 22.9508 105.543 22.9508L105.64 21.2615Z" fill="#DF5753"/>
<path d="M105.693 23.7026C105.686 23.7026 105.68 23.7012 105.673 23.6985C105.667 23.6958 105.661 23.6919 105.657 23.6869C105.652 23.6819 105.648 23.6761 105.646 23.6696C105.644 23.6632 105.643 23.6564 105.643 23.6496C105.644 23.6352 105.65 23.6217 105.66 23.6118C105.671 23.602 105.685 23.5965 105.699 23.5965C105.925 23.598 106.148 23.5491 106.352 23.4532C106.556 23.3572 106.736 23.2168 106.878 23.0422C106.889 23.0333 106.902 23.0284 106.915 23.0284C106.929 23.0284 106.942 23.0333 106.952 23.0422C106.962 23.0521 106.967 23.0653 106.967 23.0791C106.967 23.0928 106.962 23.106 106.952 23.1159C106.799 23.3015 106.607 23.4505 106.389 23.552C106.171 23.6536 105.933 23.705 105.693 23.7026Z" fill="#263238"/>
<path d="M107.385 20.6276C107.371 20.6348 107.356 20.6386 107.34 20.6386C107.324 20.6386 107.308 20.6348 107.294 20.6276C107.184 20.5563 107.058 20.5119 106.928 20.4981C106.797 20.4843 106.665 20.5014 106.542 20.548C106.53 20.554 106.517 20.5575 106.504 20.5584C106.49 20.5592 106.477 20.5574 106.464 20.553C106.452 20.5486 106.44 20.5417 106.43 20.5328C106.42 20.5238 106.412 20.5129 106.407 20.5008C106.396 20.4746 106.395 20.4451 106.406 20.4187C106.416 20.3922 106.437 20.3709 106.463 20.3593C106.617 20.2963 106.784 20.2715 106.95 20.2869C107.115 20.3023 107.275 20.3575 107.415 20.4477C107.426 20.4554 107.436 20.4653 107.443 20.4767C107.451 20.4882 107.456 20.501 107.458 20.5144C107.461 20.5279 107.461 20.5417 107.458 20.555C107.455 20.5684 107.449 20.581 107.441 20.5922C107.427 20.6091 107.407 20.6214 107.385 20.6276Z" fill="#263238"/>
<path d="M104.222 20.0379C104.206 20.0341 104.192 20.0259 104.181 20.0143C104.171 20.0047 104.163 19.9933 104.158 19.9806C104.152 19.9679 104.15 19.9544 104.15 19.9406C104.15 19.9269 104.152 19.9133 104.158 19.9006C104.163 19.888 104.171 19.8765 104.181 19.8669C104.294 19.7402 104.434 19.6412 104.592 19.5778C104.749 19.5144 104.919 19.4882 105.089 19.5013C105.102 19.5034 105.115 19.5083 105.127 19.5156C105.138 19.5229 105.148 19.5325 105.156 19.5439C105.164 19.5552 105.169 19.568 105.172 19.5815C105.174 19.595 105.174 19.6088 105.171 19.6222C105.165 19.6495 105.149 19.6736 105.126 19.6898C105.103 19.7061 105.075 19.7135 105.047 19.7107C104.913 19.7022 104.779 19.7244 104.655 19.7755C104.531 19.8265 104.42 19.9052 104.331 20.0055C104.318 20.0204 104.3 20.0313 104.281 20.0371C104.262 20.0428 104.241 20.0431 104.222 20.0379Z" fill="#263238"/>
<path d="M115.313 32.0875L112.247 31.2708C112.247 31.2708 109.24 38.6739 108.176 39.1545C106.731 39.8149 103.072 42.1027 101.515 43.1847C101.43 43.5533 101.498 44.5291 101.692 44.7974C104.346 44.3139 109.426 42.3592 110.487 41.3657C112.908 39.0984 115.313 32.0875 115.313 32.0875Z" fill="#E58A7B"/>
<path d="M113.173 105.081C113.023 105.092 112.874 105.052 112.751 104.966C112.713 104.931 112.685 104.888 112.669 104.839C112.653 104.79 112.65 104.739 112.66 104.688C112.662 104.657 112.672 104.627 112.69 104.601C112.707 104.575 112.732 104.554 112.76 104.541C113.008 104.414 113.701 104.854 113.78 104.904C113.789 104.909 113.796 104.917 113.799 104.927C113.803 104.936 113.804 104.947 113.801 104.957C113.798 104.967 113.793 104.976 113.786 104.984C113.779 104.992 113.77 104.998 113.76 105.001C113.567 105.048 113.371 105.075 113.173 105.081ZM112.878 104.621C112.856 104.616 112.833 104.616 112.81 104.621C112.799 104.626 112.79 104.635 112.783 104.646C112.777 104.657 112.774 104.67 112.775 104.683C112.767 104.717 112.768 104.753 112.779 104.786C112.789 104.82 112.808 104.85 112.834 104.874C112.949 104.977 113.238 104.989 113.618 104.915C113.392 104.766 113.137 104.666 112.869 104.621H112.878Z" fill="#4CAF4F"/>
<path d="M113.745 105.001C113.737 105.003 113.729 105.003 113.721 105.001C113.5 104.877 113.084 104.391 113.146 104.143C113.156 104.104 113.178 104.069 113.209 104.044C113.241 104.018 113.28 104.005 113.32 104.004C113.36 103.999 113.4 104.002 113.438 104.014C113.476 104.026 113.512 104.046 113.541 104.072C113.786 104.282 113.801 104.924 113.801 104.957C113.802 104.966 113.8 104.976 113.796 104.985C113.791 104.993 113.783 105 113.774 105.004C113.764 105.006 113.754 105.005 113.745 105.001ZM113.35 104.102H113.329C113.261 104.102 113.252 104.14 113.25 104.155C113.214 104.299 113.477 104.668 113.695 104.842C113.694 104.593 113.617 104.35 113.474 104.146C113.439 104.116 113.395 104.1 113.35 104.102Z" fill="#4CAF4F"/>
<path d="M105.345 104.712C105.165 104.775 104.968 104.775 104.788 104.712C104.747 104.69 104.712 104.658 104.687 104.619C104.662 104.579 104.647 104.534 104.643 104.488C104.64 104.459 104.643 104.429 104.654 104.402C104.665 104.375 104.683 104.35 104.705 104.332C104.941 104.119 105.905 104.332 106.014 104.373C106.025 104.376 106.034 104.382 106.04 104.39C106.047 104.399 106.05 104.409 106.05 104.42C106.05 104.431 106.047 104.442 106.042 104.452C106.036 104.461 106.027 104.469 106.017 104.473C105.8 104.571 105.575 104.651 105.345 104.712ZM104.865 104.361C104.831 104.368 104.799 104.383 104.773 104.405C104.764 104.412 104.757 104.422 104.752 104.433C104.748 104.444 104.747 104.456 104.75 104.467C104.752 104.498 104.761 104.528 104.778 104.555C104.794 104.581 104.817 104.602 104.844 104.618C105 104.7 105.363 104.635 105.832 104.438C105.516 104.358 105.189 104.332 104.865 104.361Z" fill="#4CAF4F"/>
<path d="M106.009 104.473H105.985C105.69 104.42 105.1 104.081 105.083 103.828C105.083 103.769 105.109 103.686 105.251 103.639C105.299 103.622 105.349 103.615 105.4 103.618C105.451 103.621 105.5 103.634 105.546 103.657C105.864 103.813 106.032 104.379 106.041 104.405C106.043 104.414 106.043 104.424 106.04 104.432C106.038 104.441 106.033 104.449 106.026 104.455C106.022 104.463 106.016 104.469 106.009 104.473ZM105.31 103.727H105.28C105.189 103.76 105.189 103.798 105.189 103.81C105.189 103.963 105.616 104.243 105.914 104.338C105.846 104.101 105.7 103.893 105.501 103.748C105.442 103.718 105.374 103.71 105.31 103.727Z" fill="#4CAF4F"/>
<path d="M101.766 43.0108L98.691 44.426L98.3342 45.3104L99.4693 46.074C99.4693 46.074 101.592 45.8441 102.196 44.479L101.766 43.0108Z" fill="#E58A7B"/>
<path d="M101.896 44.8475C101.827 44.2567 101.632 43.6876 101.324 43.1788L101.81 42.8132C102.176 43.3994 102.41 44.0585 102.494 44.7443L101.896 44.8475Z" fill="#263238"/>
<path d="M102.42 43.4294C102.486 43.5317 102.517 43.6515 102.512 43.7725C102.506 43.8936 102.464 44.01 102.39 44.1059C102.316 44.2019 102.214 44.2727 102.098 44.3088C101.983 44.3448 101.859 44.3444 101.743 44.3075C101.628 44.2706 101.527 44.199 101.453 44.1026C101.38 44.0061 101.338 43.8894 101.334 43.7683C101.329 43.6472 101.362 43.5277 101.428 43.4259C101.493 43.3241 101.589 43.2451 101.701 43.1995C101.827 43.1353 101.973 43.1234 102.108 43.1665C102.243 43.2095 102.355 43.304 102.42 43.4294Z" fill="#263238"/>
<path d="M96.6124 45.5699L97.0222 45.9826L99.7818 44.8033L98.691 44.426L96.6124 45.5699Z" fill="#E58A7B"/>
<path opacity="0.2" d="M108.462 99.4582C108.479 99.4582 108.88 100.584 108.88 100.584L104.8 102.3L104.157 101.103L108.462 99.4582Z" fill="black"/>
<path opacity="0.2" d="M116.802 100.888C116.82 100.888 116.938 102.023 116.938 102.023H112.468L112.15 100.72L116.802 100.888Z" fill="black"/>
<path d="M116.112 31.2384C116.923 33.8535 113.754 37.4297 113.754 37.4297L109.375 35.6431C109.894 34.1316 110.493 32.6485 111.168 31.2C112.512 28.3019 115.293 28.5997 116.112 31.2384Z" fill="#4CAF4F"/>
<path opacity="0.2" d="M116.112 31.2384C116.923 33.8535 113.754 37.4297 113.754 37.4297L109.375 35.6431C109.894 34.1316 110.493 32.6485 111.168 31.2C112.512 28.3019 115.293 28.5997 116.112 31.2384Z" fill="black"/>
<path d="M72.6077 5.03723H70.7238V5.3409H72.6077V5.03723Z" fill="#4CAF4F"/>
<path d="M96.9952 17.0562L96.7672 22.1162L97.0706 22.1299L97.2986 17.0699L96.9952 17.0562Z" fill="#4CAF4F"/>
<path d="M96.409 6.39929H61.6195L58.3823 78.844H93.1718L96.409 6.39929Z" fill="#4CAF4F"/>
<path opacity="0.56" d="M95.3713 7.39575H60.5818L57.3446 79.8404H92.1341L95.3713 7.39575Z" fill="#FAFAFA"/>
<path opacity="0.07" d="M94.3335 8.3894H59.544L56.3038 80.8341H91.0933L94.3335 8.3894Z" fill="#4CAF4F"/>
<path d="M90.3739 39.9859H60.679L60.4314 45.5286H90.1263L90.3739 39.9859Z" fill="white"/>
<path d="M77.0095 35.9409H60.859L60.7499 38.4203H76.9005L77.0095 35.9409Z" fill="#4CAF4F"/>
<path d="M89.7047 54.9453H60.0099L59.7622 60.488H89.4571L89.7047 54.9453Z" fill="white"/>
<path opacity="0.47" d="M84.2593 67.9737H64.2907L63.9929 74.6161H83.9615L84.2593 67.9737Z" fill="#4CAF4F"/>
<path d="M82.9237 75.648H62.9551C62.9464 75.6503 62.9373 75.6503 62.9286 75.648C62.9257 75.6394 62.9257 75.6301 62.9286 75.6215L63.2234 68.9761C63.2234 68.9716 63.2243 68.9671 63.2261 68.963C63.2279 68.9588 63.2306 68.9551 63.2339 68.9521C63.2373 68.949 63.2412 68.9467 63.2455 68.9453C63.2498 68.9438 63.2543 68.9433 63.2588 68.9437H83.2274C83.231 68.9419 83.2351 68.9409 83.2392 68.9409C83.2432 68.9409 83.2473 68.9419 83.2509 68.9437C83.253 68.9473 83.2541 68.9513 83.2541 68.9555C83.2541 68.9596 83.253 68.9637 83.2509 68.9673L82.962 75.6274C82.9585 75.6343 82.9529 75.64 82.9461 75.6437C82.9392 75.6474 82.9314 75.6489 82.9237 75.648ZM62.9905 75.5773H82.8883L83.1831 69.0026H63.2853L62.9905 75.5773Z" fill="white"/>
<path d="M73.5217 50.9003H60.1897L60.0806 53.3828H73.4097L73.5217 50.9003Z" fill="#4CAF4F"/>
<path d="M83.8789 22.0811C83.8027 23.6942 83.229 25.2442 82.2367 26.5182C81.5021 27.4806 80.5568 28.2618 79.4734 28.802C78.3899 29.3423 77.197 29.627 75.9864 29.6345C75.0081 29.642 74.0386 29.4491 73.1376 29.0677C72.2367 28.6863 71.4234 28.1244 70.7478 27.4168C70.0722 26.7092 69.5486 25.8707 69.2093 24.9531C68.87 24.0354 68.7222 23.058 68.775 22.0811C68.8786 20.0539 69.7528 18.1428 71.2188 16.7388C72.6848 15.3348 74.6317 14.5438 76.6616 14.5277C77.6406 14.5185 78.6112 14.7103 79.5132 15.091C80.4152 15.4718 81.2296 16.0334 81.906 16.7414C82.5824 17.4493 83.1065 18.2883 83.4458 19.2068C83.7852 20.1252 83.9325 21.1035 83.8789 22.0811Z" fill="white"/>
<path d="M84.5894 16.1079C84.5702 16.5368 84.4177 16.9491 84.1531 17.2872C83.9573 17.5428 83.7057 17.7503 83.4176 17.8939C83.1294 18.0375 82.8122 18.1133 82.4903 18.1157C82.1783 18.1176 81.8707 18.0431 81.5942 17.8987C81.3177 17.7542 81.0808 17.5443 80.9041 17.2872C80.6702 16.9398 80.5544 16.5263 80.5739 16.1079C80.6024 15.5697 80.8351 15.0626 81.2247 14.6901C81.6142 14.3175 82.1311 14.1076 82.6701 14.1031C82.9301 14.1007 83.1879 14.1516 83.4275 14.2527C83.6671 14.3537 83.8834 14.5027 84.0632 14.6905C84.2431 14.8783 84.3825 15.101 84.473 15.3448C84.5635 15.5885 84.6031 15.8483 84.5894 16.1079Z" fill="#4CAF4F"/>
<path d="M63.878 42.7572C63.8638 42.9948 63.7601 43.2182 63.5878 43.3823C63.4154 43.5465 63.1872 43.6392 62.9493 43.6417C62.8344 43.6431 62.7204 43.6209 62.6144 43.5765C62.5084 43.532 62.4127 43.4663 62.3331 43.3834C62.2535 43.3005 62.1918 43.2022 62.1517 43.0945C62.1117 42.9868 62.0941 42.872 62.1002 42.7572C62.1129 42.5192 62.2162 42.295 62.3889 42.1306C62.5615 41.9662 62.7905 41.8739 63.0289 41.8728C63.1437 41.8718 63.2574 41.8943 63.3632 41.9389C63.469 41.9835 63.5646 42.0492 63.6441 42.132C63.7236 42.2148 63.7853 42.313 63.8255 42.4205C63.8657 42.528 63.8836 42.6426 63.878 42.7572Z" fill="#263238"/>
<path d="M67.8522 42.7572C67.8387 42.995 67.7352 43.2188 67.5627 43.3831C67.3902 43.5474 67.1617 43.6398 66.9235 43.6417C66.8088 43.6427 66.6952 43.6201 66.5895 43.5755C66.4839 43.5309 66.3885 43.4652 66.3093 43.3823C66.23 43.2995 66.1685 43.2013 66.1286 43.0938C66.0888 42.9863 66.0713 42.8717 66.0773 42.7572C66.0901 42.5197 66.193 42.2959 66.365 42.1316C66.537 41.9672 66.7652 41.8746 67.0031 41.8727C67.118 41.8714 67.232 41.8936 67.3379 41.938C67.4439 41.9824 67.5397 42.0481 67.6193 42.131C67.6988 42.2139 67.7606 42.3123 67.8006 42.42C67.8407 42.5277 67.8582 42.6425 67.8522 42.7572Z" fill="#263238"/>
<path d="M71.8295 42.7572C71.816 42.995 71.7125 43.2188 71.54 43.3831C71.3675 43.5474 71.139 43.6398 70.9008 43.6417C70.786 43.6426 70.6722 43.6201 70.5664 43.5756C70.4606 43.531 70.3651 43.4653 70.2856 43.3825C70.2061 43.2997 70.1443 43.2015 70.1041 43.094C70.0639 42.9865 70.046 42.8719 70.0517 42.7572C70.0651 42.5194 70.1686 42.2956 70.3411 42.1313C70.5136 41.9671 70.7422 41.8746 70.9804 41.8727C71.0953 41.8714 71.2092 41.8936 71.3152 41.938C71.4212 41.9824 71.517 42.0481 71.5965 42.131C71.6761 42.2139 71.7378 42.3123 71.7779 42.42C71.818 42.5277 71.8355 42.6425 71.8295 42.7572Z" fill="#263238"/>
<path d="M63.2086 57.7167C63.1945 57.9543 63.0908 58.1777 62.9184 58.3418C62.7461 58.5059 62.5179 58.5986 62.2799 58.6012C62.1651 58.6021 62.0514 58.5796 61.9456 58.5351C61.8398 58.4905 61.7442 58.4248 61.6647 58.342C61.5852 58.2592 61.5235 58.161 61.4833 58.0535C61.443 57.946 61.4252 57.8314 61.4308 57.7167C61.4443 57.4789 61.5478 57.2551 61.7203 57.0908C61.8928 56.9266 62.1213 56.8341 62.3595 56.8322C62.4743 56.8313 62.5881 56.8538 62.6939 56.8984C62.7996 56.943 62.8952 57.0087 62.9747 57.0915C63.0542 57.1743 63.116 57.2724 63.1562 57.38C63.1964 57.4875 63.2142 57.6021 63.2086 57.7167Z" fill="#263238"/>
<path d="M67.183 57.7167C67.1696 57.954 67.0665 58.1774 66.8946 58.3416C66.7228 58.5058 66.4949 58.5986 66.2572 58.6012C66.1423 58.6026 66.0284 58.5804 65.9224 58.5359C65.8164 58.4915 65.7207 58.4258 65.6411 58.3429C65.5615 58.26 65.4998 58.1617 65.4597 58.054C65.4196 57.9463 65.4021 57.8315 65.4082 57.7167C65.4216 57.4789 65.5251 57.2551 65.6976 57.0908C65.8701 56.9266 66.0987 56.8341 66.3369 56.8322C66.4515 56.8313 66.5652 56.8538 66.6708 56.8984C66.7764 56.943 66.8718 57.0088 66.9511 57.0916C67.0303 57.1745 67.0918 57.2727 67.1317 57.3802C67.1716 57.4877 67.189 57.6022 67.183 57.7167Z" fill="#263238"/>
<path d="M71.1691 57.7167C71.1556 57.9545 71.0521 58.1783 70.8796 58.3426C70.7071 58.5068 70.4785 58.5993 70.2404 58.6012C70.1257 58.6017 70.0121 58.5789 69.9065 58.5342C69.8009 58.4894 69.7055 58.4237 69.6261 58.341C69.5467 58.2583 69.4849 58.1603 69.4446 58.053C69.4042 57.9456 69.3861 57.8312 69.3912 57.7167C69.4054 57.4791 69.5091 57.2557 69.6815 57.0916C69.8538 56.9275 70.082 56.8348 70.32 56.8322C70.4349 56.8308 70.5488 56.8531 70.6548 56.8975C70.7608 56.9419 70.8565 57.0076 70.9361 57.0905C71.0157 57.1734 71.0774 57.2717 71.1175 57.3795C71.1576 57.4872 71.1751 57.6019 71.1691 57.7167Z" fill="#263238"/>
<path d="M75.1373 57.7167C75.1232 57.9543 75.0194 58.1777 74.8471 58.3418C74.6748 58.5059 74.4466 58.5986 74.2086 58.6012C74.0939 58.6017 73.9804 58.5789 73.8748 58.5342C73.7692 58.4895 73.6738 58.4238 73.5944 58.341C73.515 58.2583 73.4532 58.1603 73.4128 58.053C73.3725 57.9457 73.3543 57.8313 73.3595 57.7167C73.3737 57.4791 73.4774 57.2558 73.6497 57.0916C73.8221 56.9275 74.0502 56.8348 74.2882 56.8322C74.403 56.8313 74.5168 56.8538 74.6226 56.8984C74.7283 56.943 74.8239 57.0087 74.9034 57.0915C74.9829 57.1743 75.0446 57.2724 75.0849 57.38C75.1251 57.4875 75.1429 57.6021 75.1373 57.7167Z" fill="#263238"/>
<path d="M79.1293 57.7167C79.1151 57.9543 79.0114 58.1777 78.8391 58.3418C78.6668 58.5059 78.4386 58.5986 78.2006 58.6012C78.0857 58.6026 77.9717 58.5804 77.8658 58.5359C77.7598 58.4915 77.664 58.4258 77.5844 58.3429C77.5049 58.26 77.4431 58.1617 77.4031 58.054C77.363 57.9463 77.3455 57.8315 77.3515 57.7167C77.365 57.4789 77.4685 57.2551 77.641 57.0908C77.8135 56.9266 78.042 56.8341 78.2802 56.8322C78.395 56.8313 78.5088 56.8538 78.6146 56.8984C78.7203 56.943 78.8159 57.0087 78.8954 57.0915C78.9749 57.1743 79.0366 57.2724 79.0769 57.38C79.1171 57.4875 79.1349 57.6021 79.1293 57.7167Z" fill="#263238"/>
<path d="M78.526 21.6877C79.76 20.481 79.8254 18.5467 78.6722 17.3674C77.519 16.1881 75.5837 16.2104 74.3497 17.4171C73.1157 18.6239 73.0502 20.5581 74.2035 21.7374C75.3567 22.9167 77.2919 22.8944 78.526 21.6877Z" fill="#4CAF4F"/>
<path d="M82.2368 26.5182C81.5022 27.4806 80.5569 28.2618 79.4734 28.802C78.3899 29.3422 77.1971 29.627 75.9864 29.6345C74.8125 29.6445 73.6541 29.3654 72.6134 28.822C71.5728 28.2785 70.6818 27.4873 70.0192 26.5182C71.452 25.0913 73.7192 24.1596 76.2312 24.1596C78.7431 24.1596 80.9307 25.0913 82.2368 26.5182Z" fill="#4CAF4F"/>
<path opacity="0.1" d="M78.526 21.6877C79.76 20.481 79.8254 18.5467 78.6722 17.3674C77.519 16.1881 75.5837 16.2104 74.3497 17.4171C73.1157 18.6239 73.0502 20.5581 74.2035 21.7374C75.3567 22.9167 77.2919 22.8944 78.526 21.6877Z" fill="white"/>
<path opacity="0.1" d="M82.2368 26.5182C81.5022 27.4806 80.5569 28.2618 79.4734 28.802C78.3899 29.3422 77.1971 29.627 75.9864 29.6345C74.8125 29.6445 73.6541 29.3654 72.6134 28.822C71.5728 28.2785 70.6818 27.4873 70.0192 26.5182C71.452 25.0913 73.7192 24.1596 76.2312 24.1596C78.7431 24.1596 80.9307 25.0913 82.2368 26.5182Z" fill="white"/>
<path d="M38.859 46.8641C38.5789 47.4773 38.2841 48.1525 38.0276 48.807C37.7711 49.4615 37.5087 50.1367 37.2817 50.8089C36.8181 52.1336 36.4651 53.4945 36.2262 54.8775L36.1613 55.3109C36.1551 55.3852 36.1621 55.4601 36.182 55.532C36.2515 55.7763 36.3611 56.0075 36.5063 56.216C36.8849 56.7557 37.3241 57.2503 37.8153 57.6901C38.3332 58.1718 38.8764 58.6255 39.4427 59.0493C40.0088 59.4856 40.6043 59.9101 41.1911 60.3111L40.6397 61.3459C39.2388 60.7355 37.909 59.9733 36.6743 59.0728C36.0156 58.5924 35.4211 58.0297 34.9054 57.3982C34.5996 57.0224 34.3613 56.5964 34.2007 56.1393C34.1074 55.8538 34.0596 55.5553 34.0592 55.2548C34.0592 55.1841 34.0592 55.0809 34.0592 55.0308V54.8863L34.0887 54.5915C34.2577 53.0554 34.5807 51.5403 35.0528 50.0688C35.2827 49.3436 35.5274 48.6212 35.8075 47.9166C36.0876 47.212 36.3765 46.5221 36.7333 45.8057L38.859 46.8641Z" fill="#E58A7B"/>
<path d="M40.7753 60.1283L42.8597 59.0728L42.3202 61.3607C42.3202 61.3607 40.8903 61.7616 40.2269 61.0658L40.7753 60.1283Z" fill="#E58A7B"/>
<path d="M44.7672 59.4472L44.213 61.34L42.3202 61.3607L42.8597 59.0728L44.7672 59.4472Z" fill="#E58A7B"/>
<path d="M47.7096 35.8258C47.8211 36.2344 47.9763 36.6298 48.1725 37.0051C48.1152 37.0701 48.0414 37.1184 47.9588 37.1449C47.8763 37.1713 47.7882 37.175 47.7037 37.1555L47.7096 35.8258Z" fill="#DF5753"/>
<path d="M47.6478 35.8435C47.7699 35.8435 47.8689 35.6917 47.8689 35.5045C47.8689 35.3172 47.7699 35.1654 47.6478 35.1654C47.5256 35.1654 47.4266 35.3172 47.4266 35.5045C47.4266 35.6917 47.5256 35.8435 47.6478 35.8435Z" fill="#263238"/>
<path d="M47.5829 35.1772L48.031 35.0504C48.031 35.0504 47.8129 35.3983 47.5829 35.1772Z" fill="#263238"/>
<path d="M41.9516 37.9898C42.2199 39.3607 42.4882 41.8756 41.5271 42.7925C41.5271 42.7925 41.9045 44.1841 44.4547 44.1841C47.2585 44.1841 45.7932 42.7925 45.7932 42.7925C44.2631 42.4269 44.3014 41.2919 44.5697 40.2246L41.9516 37.9898Z" fill="#E58A7B"/>
<path d="M41.2058 34.8646C41.3473 37.1554 41.3591 38.1284 42.5148 39.3047C44.2572 41.0737 47.0404 40.4015 47.5858 38.1254C48.0782 36.0616 47.7657 32.6652 45.522 31.7542C45.0295 31.5513 44.4934 31.4774 43.9644 31.5395C43.4354 31.6016 42.931 31.7976 42.4989 32.109C42.0668 32.4204 41.7212 32.8369 41.4949 33.3191C41.2687 33.8013 41.1691 34.3333 41.2058 34.8646Z" fill="#E58A7B"/>
<path d="M41.4327 32.2879C40.2829 32.7065 38.7498 32.394 39.3513 35.9408C39.9881 39.6969 39.0093 40.9322 39.0093 40.9322C39.0093 40.9322 43.3698 41.8609 47.8216 40.8762C47.8216 40.8762 46.4625 38.4999 46.8428 36.7486C47.3293 34.5374 46.946 33.7207 46.946 33.7207C46.946 33.7207 43.0484 31.6982 41.4327 32.2879Z" fill="#263238"/>
<path d="M46.2974 36.0587C46.2986 36.4943 46.4233 36.9206 46.6571 37.2881C46.9696 37.7657 47.3381 37.5829 47.4295 37.0758C47.512 36.6306 47.4501 35.8435 47.0521 35.5368C46.6541 35.2302 46.3033 35.5309 46.2974 36.0587Z" fill="#E58A7B"/>
<path d="M40.4333 32.6741C40.1031 31.7454 41.6775 30.3155 45.009 30.9051C48.3405 31.4948 48.485 34.2691 48.485 34.2691L47.8128 33.4672L47.8423 34.3104L44.4193 34.9678L40.4333 32.6741Z" fill="#263238"/>
<path d="M40.7163 42.9488C40.6966 42.8142 40.7303 42.6772 40.8102 42.5671C40.89 42.4569 41.0097 42.3823 41.1438 42.3592C42.1816 42.1882 44.5402 41.8403 45.7254 42.0054C46.6099 42.1292 46.8398 42.6422 46.8782 43.0638C46.8842 43.1376 46.8743 43.2119 46.8492 43.2816C46.8241 43.3512 46.7844 43.4148 46.7327 43.4678C46.6811 43.5209 46.6186 43.5623 46.5496 43.5892C46.4807 43.6161 46.4067 43.628 46.3327 43.624L41.2087 43.394C41.0879 43.3879 40.9729 43.3403 40.8832 43.2591C40.7934 43.178 40.7345 43.0684 40.7163 42.9488Z" fill="#4CAF4F"/>
<path opacity="0.6" d="M40.7163 42.9488C40.6966 42.8142 40.7303 42.6772 40.8102 42.5671C40.89 42.4569 41.0097 42.3823 41.1438 42.3592C42.1816 42.1882 44.5402 41.8403 45.7254 42.0054C46.6099 42.1292 46.8398 42.6422 46.8782 43.0638C46.8842 43.1376 46.8743 43.2119 46.8492 43.2816C46.8241 43.3512 46.7844 43.4148 46.7327 43.4678C46.6811 43.5209 46.6186 43.5623 46.5496 43.5892C46.4807 43.6161 46.4067 43.628 46.3327 43.624L41.2087 43.394C41.0879 43.3879 40.9729 43.3403 40.8832 43.2591C40.7934 43.178 40.7345 43.0684 40.7163 42.9488Z" fill="black"/>
<path d="M43.6793 94.4549L45.581 95.7758L48.7621 91.4625L46.8605 90.1446L43.6793 94.4549Z" fill="#E58A7B"/>
<path d="M39.2451 94.3694L41.2529 95.5134L44.0685 90.9524L42.0607 89.8085L39.2451 94.3694Z" fill="#E58A7B"/>
<path d="M48.7592 91.4625L47.12 93.6855L45.2184 92.3676L46.8576 90.1446L48.7592 91.4625Z" fill="#CF6F64"/>
<path d="M42.0578 89.8085L44.0686 90.9553L42.618 93.3051L40.6073 92.1582L42.0578 89.8085Z" fill="#CF6F64"/>
<path d="M45.2831 57.3481C45.2831 57.3481 52.7069 66.7029 51.3123 75.6509C50.189 82.8771 43.6734 92.6624 43.6734 92.6624L40.6101 91.1411C42.7693 86.8146 44.6119 82.3372 46.1234 77.7442C46.5895 76.3182 46.7256 74.8049 46.5213 73.3187C46.317 71.8324 45.7777 70.412 44.9441 69.1647C41.1821 63.6721 35.1559 66.9417 39.2097 57.3481H45.2831Z" fill="#4CAF4F"/>
<path opacity="0.6" d="M45.2831 57.3481C45.2831 57.3481 52.7069 66.7029 51.3123 75.6509C50.189 82.8771 43.6734 92.6624 43.6734 92.6624L40.6101 91.1411C42.7693 86.8146 44.6119 82.3372 46.1234 77.7442C46.5895 76.3182 46.7256 74.8049 46.5213 73.3187C46.317 71.8324 45.7777 70.412 44.9441 69.1647C41.1821 63.6721 35.1559 66.9417 39.2097 57.3481H45.2831Z" fill="black"/>
<path opacity="0.4" d="M48.9243 63.3567L47.8452 62.2835C47.8452 62.369 49.9355 75.2736 50.5222 78.8999C50.8685 77.8406 51.1336 76.7564 51.3153 75.6568C52.0052 71.2669 50.5635 66.7826 48.9243 63.3567Z" fill="black"/>
<path d="M48.597 57.3481C48.597 57.3481 57.5362 69.1058 57.7897 76.155C57.999 82.0516 48.0605 93.4761 48.0605 93.4761L45.1712 91.6069C45.1712 91.6069 50.9881 83.4933 52.4534 76.8656C51.8873 70.2969 39.9174 57.3481 39.9174 57.3481H48.597Z" fill="#4CAF4F"/>
<path opacity="0.6" d="M48.597 57.3481C48.597 57.3481 57.5362 69.1058 57.7897 76.155C57.999 82.0516 48.0605 93.4761 48.0605 93.4761L45.1712 91.6069C45.1712 91.6069 50.9881 83.4933 52.4534 76.8656C51.8873 70.2969 39.9174 57.3481 39.9174 57.3481H48.597Z" fill="black"/>
<path d="M37.5382 43.3173C36.5829 43.5443 35.666 47.0174 35.666 47.0174L39.4015 49.5116C39.4015 49.5116 40.6456 46.7638 40.2093 45.5609C39.7582 44.3079 38.7381 43.0313 37.5382 43.3173Z" fill="#4CAF4F"/>
<path opacity="0.2" d="M38.2693 45.5551L38.0099 48.5829L39.3985 49.5146C39.7819 48.6514 40.0658 47.7473 40.2447 46.8199L38.2693 45.5551Z" fill="black"/>
<path d="M49.7026 43.3852C49.7026 43.3852 50.8053 43.7714 48.597 57.3452H39.2039C39.3631 53.5124 39.366 51.1538 37.5381 43.3174C38.8533 43.0463 40.1865 42.8709 41.5271 42.7926C42.9473 42.6907 44.373 42.6907 45.7932 42.7926C47.627 42.9606 49.7026 43.3852 49.7026 43.3852Z" fill="#4CAF4F"/>
<path d="M50.6579 45.5551C50.8701 46.1447 51.0942 46.7786 51.3301 47.3889C51.5659 47.9992 51.79 48.6272 52.0288 49.2463L52.7511 51.0978L52.9339 51.5607L53.0283 51.7906L53.0725 51.9056C53.0725 51.9263 53.0725 51.9263 53.0725 51.9233C53.0186 51.8474 52.948 51.7848 52.8661 51.7405C52.7495 51.6719 52.618 51.6324 52.4828 51.6255C52.3706 51.622 52.2588 51.6432 52.1556 51.6875C52.02 51.7494 52.02 51.7759 52.0229 51.773C52.0474 51.7533 52.0692 51.7305 52.0878 51.7051C52.251 51.4909 52.3922 51.2607 52.5094 51.0182C52.648 50.747 52.7806 50.458 52.9133 50.1662C53.1727 49.5765 53.4116 48.9662 53.6504 48.35C53.8892 47.7338 54.1162 47.1118 54.3373 46.4838L55.0095 44.6028L56.1446 44.8976C55.9205 46.242 55.6316 47.551 55.2837 48.8837C55.1156 49.547 54.9181 50.2045 54.694 50.8678C54.582 51.201 54.4582 51.5312 54.3167 51.8702C54.1692 52.2382 53.9875 52.5916 53.7742 52.9257C53.6958 53.0382 53.609 53.1446 53.5147 53.2441C53.3642 53.4067 53.1815 53.5363 52.9782 53.6245C52.7978 53.7019 52.6024 53.7382 52.4062 53.7306C52.1864 53.7224 51.9724 53.6585 51.7841 53.5449C51.562 53.4062 51.3777 53.2148 51.2475 52.9876C51.2033 52.911 51.165 52.8343 51.1384 52.7783L51.0824 52.6663L50.9704 52.4363L50.7463 51.9793C50.4515 51.3661 50.1567 50.747 49.9002 50.1249C49.6437 49.5028 49.3724 48.8719 49.1189 48.238C48.8653 47.6041 48.6383 46.9702 48.4231 46.2862L50.6579 45.5551Z" fill="#E58A7B"/>
<path d="M49.7027 43.3852C50.8319 43.6534 52.1026 46.9909 52.1026 46.9909L48.7445 49.8477C48.7445 49.8477 46.5716 46.2096 47.0109 45.0096C47.4679 43.7596 48.2285 43.0343 49.7027 43.3852Z" fill="#4CAF4F"/>
<path d="M55.5432 43.5473L56.7225 42.5626L57.5421 43.8392L56.9377 44.9035C56.9377 44.9035 55.9766 45.788 55.1275 45.3369C54.9927 45.034 54.9604 44.6954 55.0354 44.3724C55.1104 44.0495 55.2887 43.7598 55.5432 43.5473Z" fill="#E58A7B"/>
<path d="M58.8511 42.5655L58.7627 42.8869L56.8964 43.1994L56.7136 42.5626L58.8511 42.5655Z" fill="#E58A7B"/>
<path d="M48.2904 93.6265L44.9235 91.4507L45.5279 90.4011L49.3105 92.7272L48.2904 93.6265Z" fill="#4CAF4F"/>
<path d="M42.5708 95.3601C42.2754 95.324 41.9915 95.2233 41.7394 95.0652C41.729 95.0616 41.7199 95.0548 41.7136 95.0459C41.7072 95.0369 41.7037 95.0261 41.7037 95.0151C41.7037 95.0041 41.7072 94.9933 41.7136 94.9844C41.7199 94.9754 41.729 94.9686 41.7394 94.965C41.8308 94.9355 42.6238 94.6908 42.8538 94.8795C42.8797 94.901 42.8993 94.929 42.9107 94.9606C42.9221 94.9922 42.9249 95.0263 42.9187 95.0593C42.9146 95.1124 42.897 95.1636 42.8676 95.2079C42.8382 95.2523 42.7979 95.2884 42.7506 95.3129C42.6954 95.343 42.6337 95.3592 42.5708 95.3601ZM41.9074 95.0357C42.2759 95.2244 42.5708 95.2922 42.7123 95.2215C42.7431 95.2044 42.769 95.1797 42.7876 95.1498C42.8062 95.1199 42.8168 95.0857 42.8184 95.0505C42.8184 95.0033 42.8184 94.9827 42.7919 94.9709C42.6681 94.8706 42.2258 94.9473 41.9015 95.0357H41.9074Z" fill="#263238"/>
<path d="M41.76 95.0858C41.7444 95.0856 41.7296 95.0793 41.7187 95.0682C41.7143 95.06 41.712 95.0509 41.712 95.0416C41.712 95.0324 41.7143 95.0232 41.7187 95.0151C41.7187 94.9886 41.9104 94.3488 42.2111 94.2043C42.2495 94.1868 42.2912 94.1777 42.3334 94.1777C42.3757 94.1777 42.4174 94.1868 42.4558 94.2043C42.4972 94.2174 42.533 94.2439 42.5576 94.2797C42.5822 94.3155 42.5941 94.3585 42.5914 94.4019C42.5708 94.6672 42.0312 95.0328 41.7836 95.0947L41.76 95.0858ZM42.332 94.281C42.3033 94.2819 42.2751 94.2889 42.2494 94.3016C42.0666 94.3901 41.9163 94.735 41.8425 94.9443C42.102 94.8352 42.4587 94.5463 42.4705 94.3842C42.4705 94.3576 42.4705 94.3252 42.4027 94.2957C42.3807 94.2839 42.3567 94.2759 42.332 94.2721V94.281Z" fill="#263238"/>
<path d="M46.7779 96.6337C46.4448 96.6337 45.9819 96.2062 45.7283 95.9438C45.7219 95.9348 45.7184 95.9239 45.7184 95.9128C45.7184 95.9017 45.7219 95.8909 45.7283 95.8819C45.7342 95.8724 45.7424 95.8646 45.7523 95.8594C45.7622 95.8542 45.7732 95.8518 45.7844 95.8524C45.9023 95.8524 46.9253 96.0057 47.0698 96.2946C47.0851 96.3205 47.0932 96.35 47.0932 96.3801C47.0932 96.4102 47.0851 96.4397 47.0698 96.4656C47.0481 96.5106 47.0154 96.5494 46.9747 96.5782C46.9339 96.6071 46.8865 96.6252 46.8369 96.6307L46.7779 96.6337ZM45.9229 95.985C46.2944 96.3447 46.6217 96.5452 46.8074 96.5216C46.8399 96.5174 46.8709 96.5052 46.8977 96.4862C46.9244 96.4672 46.946 96.4419 46.9607 96.4125C46.9673 96.4025 46.9708 96.3907 46.9708 96.3786C46.9708 96.3666 46.9673 96.3548 46.9607 96.3447C46.8841 96.1855 46.3386 96.0499 45.9229 95.985Z" fill="#263238"/>
<path d="M45.9555 95.9703C45.8893 95.9722 45.8231 95.9673 45.7579 95.9556C45.7488 95.9542 45.7402 95.9505 45.733 95.9448C45.7258 95.9392 45.7201 95.9317 45.7167 95.9232C45.7123 95.9145 45.71 95.9049 45.71 95.8952C45.71 95.8854 45.7123 95.8758 45.7167 95.8671C45.7343 95.8465 46.1324 95.3659 46.5097 95.3335C46.6166 95.3252 46.7224 95.3591 46.8046 95.4279C46.9196 95.5281 46.9137 95.6165 46.8842 95.6726C46.8105 95.873 46.3004 95.9703 45.9555 95.9703ZM45.8788 95.8613C46.209 95.8789 46.7368 95.7698 46.8046 95.6254C46.8046 95.6254 46.8282 95.5782 46.7515 95.5134C46.721 95.4868 46.6854 95.4669 46.6468 95.4547C46.6083 95.4425 46.5676 95.4384 46.5274 95.4426C46.2732 95.5135 46.0469 95.6607 45.8788 95.8642V95.8613Z" fill="#263238"/>
<path d="M41.8396 94.7674L39.3395 94.0599C39.2964 94.0468 39.25 94.0501 39.2092 94.0692C39.1684 94.0882 39.1361 94.1216 39.1184 94.163L38.2752 96.0588C38.2554 96.1073 38.2461 96.1595 38.2479 96.2119C38.2497 96.2643 38.2626 96.3158 38.2857 96.3628C38.3088 96.4099 38.3417 96.4515 38.382 96.485C38.4224 96.5185 38.4694 96.543 38.5199 96.557C39.4044 96.787 39.8289 96.8519 40.9286 97.1673C41.6067 97.356 42.5737 97.7069 43.5083 97.9722C44.4429 98.2375 44.7555 97.3265 44.3928 97.1319C42.7536 96.2652 42.6239 95.6578 42.1757 95.0092C42.0955 94.8917 41.9765 94.8062 41.8396 94.7674Z" fill="#4CAF4F"/>
<path d="M45.7961 95.5988L43.6616 94.1247C43.6254 94.0983 43.5808 94.0862 43.5362 94.0905C43.4917 94.0949 43.4503 94.1154 43.4198 94.1483L42.0047 95.6696C41.9702 95.7089 41.9445 95.7551 41.9292 95.8051C41.914 95.8552 41.9095 95.9079 41.9162 95.9598C41.9229 96.0116 41.9406 96.0615 41.968 96.106C41.9955 96.1505 42.0321 96.1887 42.0754 96.218C42.8272 96.7221 43.2164 96.9256 44.1569 97.5771C44.7466 97.9781 45.8875 98.8684 46.6836 99.4227C47.4796 99.977 48.0722 99.2163 47.7892 98.9156C46.5214 97.5624 46.2443 96.7133 46.0349 95.9438C45.9986 95.8042 45.914 95.682 45.7961 95.5988Z" fill="#4CAF4F"/>
<path d="M44.0656 92.8569L40.2181 90.9435L40.6162 89.8998L44.726 91.9165L44.0656 92.8569Z" fill="#4CAF4F"/>
<path d="M39.0624 56.7938L38.7381 57.6429C38.7057 57.7078 38.7823 57.7756 38.8914 57.7756H48.6443C48.7298 57.7756 48.8005 57.7343 48.8064 57.6813L48.889 56.8381C48.889 56.7821 48.8211 56.7319 48.7298 56.7319H39.2157C39.1871 56.7292 39.1582 56.7335 39.1315 56.7442C39.1048 56.755 39.0811 56.772 39.0624 56.7938Z" fill="#4CAF4F"/>
<path opacity="0.4" d="M39.0624 56.7938L38.7381 57.6429C38.7057 57.7078 38.7823 57.7756 38.8914 57.7756H48.6443C48.7298 57.7756 48.8005 57.7343 48.8064 57.6813L48.889 56.8381C48.889 56.7821 48.8211 56.7319 48.7298 56.7319H39.2157C39.1871 56.7292 39.1582 56.7335 39.1315 56.7442C39.1048 56.755 39.0811 56.772 39.0624 56.7938Z" fill="white"/>
<path d="M40.5984 57.8581H40.3419C40.2918 57.8581 40.2534 57.8316 40.2564 57.7992L40.3773 56.7054C40.3773 56.6759 40.4244 56.6494 40.4746 56.6494H40.7311C40.7812 56.6494 40.8195 56.6759 40.8166 56.7054L40.6957 57.7992C40.6927 57.8316 40.6485 57.8581 40.5984 57.8581Z" fill="#4CAF4F"/>
<path d="M46.6129 57.8581H46.3593C46.3092 57.8581 46.2709 57.8316 46.2738 57.7992L46.3918 56.7054C46.3918 56.6759 46.4419 56.6494 46.492 56.6494H46.7456C46.7957 56.6494 46.837 56.6759 46.8311 56.7054L46.7131 57.7992C46.6984 57.8316 46.666 57.8581 46.6129 57.8581Z" fill="#4CAF4F"/>
<g style="mix-blend-mode:multiply">
<path d="M40.3743 107.787C44.7365 107.787 48.2727 107.531 48.2727 107.215C48.2727 106.899 44.7365 106.643 40.3743 106.643C36.0122 106.643 32.476 106.899 32.476 107.215C32.476 107.531 36.0122 107.787 40.3743 107.787Z" fill="#F5F5F5"/>
</g>
<path d="M45.1859 106.407C43.7885 106 42.2377 105.478 41.3001 104.933C41.2736 104.915 41.2441 104.907 41.2176 104.892V98.5648H44.045C44.2596 98.5521 44.4612 98.4579 44.6087 98.3014C44.7562 98.1449 44.8383 97.9381 44.8383 97.7231C44.8383 97.5081 44.7562 97.3012 44.6087 97.1447C44.4612 96.9883 44.2596 96.894 44.045 96.8813H41.2323V68.0414H39.5341V96.8813H36.7244C36.6097 96.8745 36.4948 96.8913 36.3868 96.9305C36.2787 96.9697 36.1799 97.0306 36.0962 97.1095C36.0126 97.1883 35.946 97.2834 35.9004 97.3889C35.8549 97.4944 35.8314 97.6081 35.8314 97.7231C35.8314 97.838 35.8549 97.9517 35.9004 98.0572C35.946 98.1627 36.0126 98.2578 36.0962 98.3367C36.1799 98.4155 36.2787 98.4764 36.3868 98.5156C36.4948 98.5549 36.6097 98.5716 36.7244 98.5648H39.5341V104.883C39.5076 104.883 39.481 104.906 39.4545 104.924C38.5022 105.478 36.9632 106 35.5658 106.398C35.4714 106.427 35.3903 106.488 35.3372 106.571C35.2842 106.655 35.2627 106.754 35.2766 106.852C35.2905 106.949 35.3389 107.039 35.413 107.104C35.4871 107.169 35.5821 107.205 35.6807 107.206H45.0709C45.1652 107.2 45.2544 107.161 45.3236 107.097C45.3929 107.033 45.438 106.947 45.4514 106.853C45.4649 106.76 45.4459 106.664 45.3975 106.583C45.3492 106.502 45.2745 106.44 45.1859 106.407Z" fill="#E0E0E0"/>
<path d="M45.6192 65.105H35.1352C34.2918 65.105 33.608 65.7887 33.608 66.6322V69.7485C33.608 70.5919 34.2918 71.2757 35.1352 71.2757H45.6192C46.4627 71.2757 47.1464 70.5919 47.1464 69.7485V66.6322C47.1464 65.7887 46.4627 65.105 45.6192 65.105Z" fill="#4CAF4F"/>
<path d="M35.038 71.2786V71.8152C35.038 72.2575 35.5185 72.6171 36.1082 72.6171H44.6581C45.2478 72.6171 45.7284 72.2575 45.7284 71.8152V71.2786H35.038Z" fill="#4CAF4F"/>
<path opacity="0.3" d="M35.038 71.2786V71.8152C35.038 72.2575 35.5185 72.6171 36.1082 72.6171H44.6581C45.2478 72.6171 45.7284 72.2575 45.7284 71.8152V71.2786H35.038Z" fill="white"/>
</svg>
